<svg width="49" height="48" viewBox="0 0 49 48" fill="none" xmlns="http://www.w3.org/2000/svg">
<path d="M12.5 4C9.1863 4 6.5 6.68628 6.5 9.99999V29.103C6.5 30.6443 7.09312 32.1264 8.15639 33.2422L11.87 37.1392C13.0024 38.3275 14.5721 39 16.2136 39H16.5C17.6046 39 18.5 38.1046 18.5 37C18.5 35.8954 17.6046 35 16.5 35H16.2136C15.6664 35 15.1432 34.7758 14.7657 34.3797L11.0521 30.4828C10.6977 30.1108 10.5 29.6168 10.5 29.103V9.99999C10.5 8.89543 11.3954 8 12.5 8H35.5C36.6046 8 37.5 8.89543 37.5 10V34C37.5 34.5523 37.0523 35 36.5 35C35.3954 35 34.5 35.8954 34.5 37C34.5 38.1046 35.3954 39 36.5 39C39.2614 39 41.5 36.7614 41.5 34V10C41.5 6.68629 38.8137 4 35.5 4H12.5Z" fill="#258AFF"/>
<path d="M21.6809 35.3635C20.6763 35.3635 19.8619 36.2008 19.8619 37.2336C19.8619 38.2664 20.6763 39.1037 21.6809 39.1037H24.3522L24.3522 42.0958C24.3522 43.1286 25.3964 43.9659 26.401 43.9659C27.4057 43.9659 28.2201 43.1286 28.2201 42.0958V39.1037H30.6809C31.6856 39.1037 32.5 38.2664 32.5 37.2336C32.5 36.2008 31.6856 35.3635 30.6809 35.3635L28.2201 35.3635V32.8701C28.2201 31.8373 27.4057 31 26.401 31C25.3964 31 24.3522 31.8373 24.3522 32.8701V35.3635L21.6809 35.3635Z" fill="#258AFF"/>
</svg>
