<svg width="35" height="36" viewBox="0 0 35 36" fill="none" xmlns="http://www.w3.org/2000/svg">
<path d="M11.697 0C8.30344 0 5.55244 2.74388 5.55244 6.12862V7.08197C5.55244 8.21022 6.46944 9.12484 7.60061 9.12484C8.73179 9.12484 9.64879 8.21022 9.64879 7.08197V6.12862C9.64879 5.00038 10.5658 4.08575 11.697 4.08575H28.3555C29.4866 4.08575 30.4036 5.00038 30.4036 6.12862V29.8714C30.4036 30.9996 29.4866 31.9142 28.3555 31.9142H10.9687C10.2397 31.9142 9.64879 31.3248 9.64879 30.5977C9.64879 29.4695 8.73179 28.5549 7.60061 28.5549C6.46944 28.5549 5.55244 29.4695 5.55244 30.5977C5.55244 33.5813 7.97739 36 10.9687 36H28.3555C31.749 36 34.5 33.2561 34.5 29.8714V6.12862C34.5 2.74388 31.749 0 28.3555 0H11.697Z" fill="#258AFF"/>
<path d="M7.87344 12.1216C9.00461 12.1216 9.92161 13.0362 9.92161 14.1645V17.1607H12.6525C13.7837 17.1607 14.7007 18.0753 14.7007 19.2036C14.7007 20.3318 13.7837 21.2464 12.6525 21.2464H9.92161V23.5163C9.92161 24.6445 9.00461 25.5592 7.87344 25.5592C6.74226 25.5592 5.82526 24.6445 5.82526 23.5163V21.2464H2.54818C1.417 21.2464 0.5 20.3318 0.5 19.2036C0.5 18.0753 1.417 17.1607 2.54818 17.1607L5.82526 17.1607V14.1645C5.82526 13.0362 6.74226 12.1216 7.87344 12.1216Z" fill="#258AFF"/>
</svg>
