<svg width="49" height="48" viewBox="0 0 49 48" fill="none" xmlns="http://www.w3.org/2000/svg">
<path d="M31.8333 28H30.2533L29.6933 27.46C31.6533 25.18 32.8333 22.22 32.8333 19C32.8333 11.82 27.0133 6 19.8333 6C12.6533 6 6.83325 11.82 6.83325 19C6.83325 26.18 12.6533 32 19.8333 32C23.0533 32 26.0133 30.82 28.2933 28.86L28.8333 29.42V31L38.8333 40.98L41.8133 38L31.8333 28ZM19.8333 28C14.8533 28 10.8333 23.98 10.8333 19C10.8333 14.02 14.8533 10 19.8333 10C24.8133 10 28.8333 14.02 28.8333 19C28.8333 23.98 24.8133 28 19.8333 28Z" fill="#258AFF"/>
</svg>
