<svg width="49" height="48" viewBox="0 0 49 48" fill="none" xmlns="http://www.w3.org/2000/svg">
<path d="M12.6223 39.3869C9.60834 39.3869 8.16669 36.8751 8.16669 33.7767V7.61025C8.16669 4.51181 10.6099 2.00003 13.6239 2.00003L34.8955 2C37.9095 2 40.3527 4.51178 40.3527 7.61022V34.4416C40.3527 37.1728 38.8285 39.3869 36.1718 39.3869C35.1671 39.3869 34.3527 38.5496 34.3527 37.5168C34.3527 36.484 35.1671 35.6468 36.1718 35.6468C36.7374 35.6468 36.729 35.2349 36.7179 34.687C36.7163 34.6078 36.7146 34.5257 36.7146 34.4416L36.7146 7.61022C36.7146 6.57741 35.9002 5.74014 34.8955 5.74014L13.6239 5.74017C12.6192 5.74017 11.8048 6.57743 11.8048 7.61025L11.8048 33.7767C11.8048 33.9225 11.8011 34.0645 11.7975 34.2007C11.7757 35.0293 11.7595 35.6468 12.6223 35.6468H13.4711C14.4758 35.6468 15.2902 36.484 15.2902 37.5169C15.2902 38.5497 14.4758 39.3869 13.4711 39.3869H12.6223Z" fill="#258AFF"/>
<path d="M22.9917 28.192L26.8077 34.8L26.8557 34.88L29.7837 29.8C28.4077 28.68 26.6477 28 24.7277 28C24.1277 28 23.5517 28.072 22.9917 28.192Z" fill="#258AFF"/>
<path d="M21.8957 28.528C19.6157 29.392 17.8317 31.264 17.0957 33.6H24.8237L21.8957 28.528Z" fill="#258AFF"/>
<path d="M22.8797 34.4H16.8877C16.7837 34.92 16.7277 35.448 16.7277 36C16.7277 38.088 17.5277 39.976 18.8397 41.4L22.6477 34.8L22.8797 34.4Z" fill="#258AFF"/>
<path d="M30.6157 30.6L27.4957 36L26.5757 37.6H32.5677C32.6717 37.08 32.7277 36.552 32.7277 36C32.7277 33.912 31.9197 32.024 30.6157 30.6Z" fill="#258AFF"/>
<path d="M27.5597 43.472C29.8397 42.608 31.6237 40.736 32.3597 38.4H24.6317L27.5597 43.472Z" fill="#258AFF"/>
<path d="M26.4637 43.808L23.3437 38.4L22.5997 37.12L19.6717 42.2C21.0477 43.32 22.8077 44 24.7277 44C25.3277 44 25.9037 43.928 26.4637 43.808Z" fill="#258AFF"/>
</svg>
