<svg width="24" height="24" viewBox="0 0 24 24" fill="none" xmlns="http://www.w3.org/2000/svg">
<path d="M4 17.2726C4 18.8218 4.72083 20.0777 6.22778 20.0777L6.65223 20.0777C7.15455 20.0777 7.56176 19.6591 7.56176 19.1426C7.56176 18.6262 7.15455 18.2076 6.65223 18.2076L6.22778 18.2076C5.72546 18.2076 5.81906 17.789 5.81906 17.2726L5.81906 4.18934C5.81906 3.67294 6.22627 3.2543 6.72858 3.2543L16.2714 3.2543C16.7737 3.2543 17.1809 3.67294 17.1809 4.18934L17.1809 17.605C17.1809 17.9378 17.2332 18.2076 16.9095 18.2076C16.4072 18.2076 16 18.6262 16 19.1426C16 19.6591 16.4072 20.0777 16.9095 20.0777C18.2379 20.0777 19 18.9706 19 17.605L19 4.18934C19 2.64012 17.7784 1.38423 16.2714 1.38423L6.72858 1.38423C5.22163 1.38423 4 2.64012 4 4.18934L4 17.2726Z" fill="black"/>
<path d="M8.68094 19.2993C8.68094 18.7829 9.08815 18.3643 9.59047 18.3643L10.9261 18.3643L10.9261 17.1176C10.9261 16.6012 11.4482 16.1826 11.9505 16.1826C12.4528 16.1826 12.86 16.6012 12.86 17.1176L12.86 18.3643L14.0905 18.3643C14.5928 18.3643 15 18.7829 15 19.2993C15 19.8158 14.5928 20.2344 14.0905 20.2344L12.86 20.2344L12.86 21.7304C12.86 22.2469 12.4528 22.6655 11.9505 22.6655C11.4482 22.6655 10.9261 22.2469 10.9261 21.7304L10.9261 20.2344L9.59047 20.2344C9.08815 20.2344 8.68094 19.8158 8.68094 19.2993Z" fill="black"/>
</svg>
