<svg width="93" height="93" viewBox="0 0 93 93" fill="none" xmlns="http://www.w3.org/2000/svg">
<g filter="url(#filter0_ddd_128_5836)">
<rect x="18.5" y="17.5" width="56" height="56" rx="28" fill="#258AFF"/>
<path fill-rule="evenodd" clip-rule="evenodd" d="M37.5 33.1351C37.5 31.9559 38.4174 31 39.549 31H54.451C55.5826 31 56.5 31.9559 56.5 33.1351V57.9798C56.5 59.159 55.5826 60.1149 54.451 60.1149H50.0655V58.9503H54.451C54.9654 58.9503 55.3824 58.5158 55.3824 57.9798V33.1351C55.3824 32.5991 54.9654 32.1646 54.451 32.1646H39.549C39.0346 32.1646 38.6176 32.5991 38.6176 33.1351V57.9798C38.6176 58.5158 39.0346 58.9503 39.549 58.9503H43.4235V60.1149H39.549C38.4174 60.1149 37.5 59.159 37.5 57.9798V33.1351Z" fill="white"/>
<path d="M48.1583 51.0268C48.1583 50.3603 47.6397 49.8199 47 49.8199C46.3603 49.8199 45.8417 50.3603 45.8417 51.0268V54.203H42.7936C42.1539 54.203 41.6353 54.7434 41.6353 55.4099C41.6353 56.0765 42.1539 56.6169 42.7936 56.6169H45.8417V59.7931C45.8417 60.4596 46.3603 61 47 61C47.6397 61 48.1583 60.4596 48.1583 59.7931V56.6169H51.2064C51.8461 56.6169 52.3647 56.0765 52.3647 55.4099C52.3647 54.7434 51.8461 54.203 51.2064 54.203H48.1583V51.0268Z" fill="white"/>
</g>
<defs>
<filter id="filter0_ddd_128_5836" x="0.5" y="0.5" width="92" height="92" filterUnits="userSpaceOnUse" color-interpolation-filters="sRGB">
<feFlood flood-opacity="0" result="BackgroundImageFix"/>
<feColorMatrix in="SourceAlpha" type="matrix" values="0 0 0 0 0 0 0 0 0 0 0 0 0 0 0 0 0 0 127 0" result="hardAlpha"/>
<feOffset dy="1"/>
<feGaussianBlur stdDeviation="9"/>
<feColorMatrix type="matrix" values="0 0 0 0 0.145098 0 0 0 0 0.541176 0 0 0 0 1 0 0 0 0.05 0"/>
<feBlend mode="normal" in2="BackgroundImageFix" result="effect1_dropShadow_128_5836"/>
<feColorMatrix in="SourceAlpha" type="matrix" values="0 0 0 0 0 0 0 0 0 0 0 0 0 0 0 0 0 0 127 0" result="hardAlpha"/>
<feOffset dy="6"/>
<feGaussianBlur stdDeviation="5"/>
<feColorMatrix type="matrix" values="0 0 0 0 0.145098 0 0 0 0 0.541176 0 0 0 0 1 0 0 0 0.2 0"/>
<feBlend mode="normal" in2="effect1_dropShadow_128_5836" result="effect2_dropShadow_128_5836"/>
<feColorMatrix in="SourceAlpha" type="matrix" values="0 0 0 0 0 0 0 0 0 0 0 0 0 0 0 0 0 0 127 0" result="hardAlpha"/>
<feMorphology radius="1" operator="erode" in="SourceAlpha" result="effect3_dropShadow_128_5836"/>
<feOffset dy="3"/>
<feGaussianBlur stdDeviation="2.5"/>
<feColorMatrix type="matrix" values="0 0 0 0 0.145098 0 0 0 0 0.541176 0 0 0 0 1 0 0 0 0.3 0"/>
<feBlend mode="normal" in2="effect2_dropShadow_128_5836" result="effect3_dropShadow_128_5836"/>
<feBlend mode="normal" in="SourceGraphic" in2="effect3_dropShadow_128_5836" result="shape"/>
</filter>
</defs>
</svg>
