<svg width="94" height="53" viewBox="0 0 94 53" fill="none" xmlns="http://www.w3.org/2000/svg">
<rect width="23.8641" height="35.7961" rx="5.83333" transform="matrix(0.70443 0.714909 -0.699339 0.709727 73.7679 5.2085)" fill="#F7F8FC" stroke="#9FA2B4"/>
<rect width="23.8451" height="35.826" rx="5.83333" transform="matrix(0.816379 0.580895 -0.566312 0.821872 68.0383 5.13684)" fill="#F7F8FC" stroke="#9FA2B4"/>
<rect width="23.8407" height="35.8378" rx="5.83333" transform="matrix(0.903356 0.428926 -0.41637 0.909211 62.6289 6.75232)" fill="#F7F8FC" stroke="#9FA2B4"/>
<mask id="mask0_3937_52025" style="mask-type:alpha" maskUnits="userSpaceOnUse" x="52" y="12" width="27" height="32">
<rect width="17.7124" height="25.3659" transform="matrix(0.903228 0.429204 -0.416098 0.90934 62.5806 12.7992)" fill="#C4C4C4"/>
</mask>
<g mask="url(#mask0_3937_52025)">
<path d="M67.46 26.705L67.7488 28.4313C67.7488 28.4313 67.1195 28.823 67.0846 29.1923C67.0846 29.1923 65.0852 30.5727 63.9728 30.9563C63.9728 30.9563 63.4958 31.1024 63.319 31.574C63.319 31.574 62.7106 31.8041 62.4163 32.1519C62.122 32.4998 60.7952 34.0179 60.6502 34.2461C60.5882 34.3419 60.2442 34.0319 60.0928 34.1128C59.7747 34.2856 60.0437 34.6966 59.1869 34.9605C58.7792 35.0877 58.4507 35.8595 59.1824 36.1454C59.912 36.4303 60.2197 35.9571 60.3487 35.7727C60.4755 35.5873 60.8427 35.6117 61.0523 35.6313C61.262 35.651 61.4 35.0393 61.3777 34.9169C61.3553 34.7946 61.2371 34.7414 61.2371 34.7414L61.8055 34.4366L62.2006 34.2015C62.2006 34.2015 63.1096 33.9525 63.5009 33.7202C63.8923 33.4879 64.2651 32.8992 64.2651 32.8992C64.2651 32.8992 65.0421 33.8597 65.6059 33.9656C66.1697 34.0715 68.3554 32.6092 68.6223 32.507C68.8891 32.4048 69.309 32.8361 69.309 32.8361L69.553 33.8622C69.553 33.8622 68.3601 35.0781 67.4623 35.3635C66.531 35.4714 66.214 35.7227 66.214 35.7227C66.2569 35.9216 66.6377 36.0451 66.6377 36.0451L65.6162 36.671C65.6162 36.671 65.5387 37.028 65.9523 37.0809C66.3658 37.1337 67.5461 36.5345 67.947 36.1112C68.0646 35.9847 69.5383 35.3771 69.7064 35.3944C69.7064 35.3944 69.6724 35.6367 69.9031 35.9691C70.1338 36.3016 71.547 36.6355 71.547 36.6355C71.547 36.6355 71.3532 37.0347 71.5797 37.8205C71.8062 38.6064 72.2629 40.3382 72.2352 40.4845C72.216 40.5857 72.0432 40.5919 72.014 40.6856C71.9103 41.0103 71.7702 41.2646 71.7702 41.2646C71.7702 41.2646 71.6797 41.5771 71.9997 41.8372C72.263 42.0494 72.1691 42.4263 72.1563 42.5874C72.1436 42.7485 72.8328 43.5155 73.3591 43.3096C73.8854 43.1037 73.6096 42.3776 73.6096 42.3776C73.6096 42.3776 73.0502 41.6367 73.4544 41.3118C73.6522 41.1531 73.0285 40.632 73.0285 40.632C73.0285 40.632 73.0548 39.2647 73.1181 39.0161C73.243 38.5228 73.2769 38.2308 73.2486 37.735C73.2369 37.5189 73.0784 36.7607 73.0784 36.7607L73.3577 36.6978L72.6593 31.8924C72.6593 31.8924 73.2367 30.8606 73.3743 30.225C73.5141 29.5906 73.2156 29.3486 73.3293 29.0503C73.5589 28.4546 72.8689 27.3898 72.5302 27.0423C72.1907 26.6968 71.5633 26.2469 71.5633 26.2469L72.1566 25.3152C72.1566 25.3152 73.3645 24.4138 71.5768 23.523C69.7891 22.6322 70.0752 24.3336 70.0752 24.3336L69.7992 25.2383C69.7992 25.2383 68.3629 24.6212 67.5114 24.9539C66.7688 25.243 65.8301 24.9624 65.1556 24.6607C64.481 24.3591 64.2468 24.1098 63.7698 23.975C63.2927 23.8402 61.8001 23.5554 61.374 23.3947C60.9047 23.2166 60.3336 23.0905 59.9213 23.2035C59.7286 23.2563 58.8528 23.7087 58.6931 23.9152C58.509 24.154 58.935 24.2651 58.935 24.2651C58.935 24.2651 59.3022 24.4643 59.7145 24.3513C60.1269 24.2383 60.7217 23.9777 61.2009 24.1136C61.678 24.2484 61.678 24.3169 62.3495 24.7444C63.018 25.1728 63.0027 25.165 63.6724 25.4217C64.3422 25.6784 64.4727 25.5467 64.9533 25.7919C65.4338 26.0371 66.4431 26.5331 67.46 26.705Z" fill="#9FA2B4"/>
<path d="M60.5727 29.7075C61.3592 30.1089 62.2378 29.8681 62.535 29.1696C62.8322 28.4712 62.4355 27.5795 61.6489 27.1781C60.8624 26.7767 59.9838 27.0175 59.6866 27.716C59.3894 28.4145 59.7861 29.3061 60.5727 29.7075Z" fill="#9FA2B4"/>
</g>
<path fill-rule="evenodd" clip-rule="evenodd" d="M77.1326 18.0174L66.4148 12.925C65.6412 13.5427 64.6765 13.8803 63.6846 13.878L53.734 35.6215C54.3474 36.3803 54.7014 37.3234 54.74 38.2971L65.4579 43.3896C66.2314 42.7719 67.1961 42.4343 68.188 42.4366L78.1386 20.693C77.5252 19.9342 77.1713 18.9912 77.1326 18.0174ZM80.1744 20.8775L81.0673 21.3018L70.5085 44.3745L69.5753 43.9311L68.8497 45.5171C68.0908 45.1564 67.1915 45.4834 66.8415 46.2485L65.3615 45.545L64.9752 46.3891L52.8475 40.6268L53.2227 39.8068L51.7033 39.0846C52.0533 38.3195 51.721 37.4071 50.962 37.0464L51.6982 35.437L50.8053 35.0128L61.4677 11.7139L62.4009 12.1573L63.0229 10.7975C63.7819 11.1582 64.6812 10.8312 65.0312 10.0661L66.2866 10.6628L66.6728 9.81872L79.0252 15.6878L78.65 16.5077L80.1694 17.2299C79.8194 17.995 80.1517 18.9074 80.9106 19.2682L80.1744 20.8775Z" fill="#2EA7F0"/>
<path d="M2.42864 20.9874C1.08734 18.0582 2.35923 14.5633 5.26949 13.1813L15.3681 8.38596C17.4106 7.41602 19.8315 8.30046 20.7729 10.3563C21.7122 12.4077 24.1278 13.2902 26.1659 12.3224C28.204 11.3546 30.6176 12.233 31.557 14.2844L38.9333 30.3931C40.2746 33.3224 39.0027 36.8173 36.0924 38.1992L20.1843 45.7533C17.2741 47.1352 13.8275 45.8809 12.4862 42.9517L2.42864 20.9874Z" fill="#F7F8FC" stroke="#9FA2B4"/>
<line y1="-0.5" x2="11.5629" y2="-0.5" transform="matrix(-0.932735 -0.344534 0.339463 -0.946608 29.9421 10.7246)" stroke="#9FA2B4"/>
<line y1="-0.5" x2="18.9872" y2="-0.5" transform="matrix(0.903891 -0.427756 0.417514 0.908667 11.1591 27.8138)" stroke="#9FA2B4"/>
<line y1="-0.5" x2="18.1412" y2="-0.5" transform="matrix(0.417513 0.908667 -0.90389 0.427757 14.5405 23.3362)" stroke="#9FA2B4"/>
<line y1="-0.5" x2="18.9872" y2="-0.5" transform="matrix(0.903891 -0.427756 0.417514 0.908666 12.5881 30.9241)" stroke="#9FA2B4"/>
<line y1="-0.5" x2="18.9872" y2="-0.5" transform="matrix(0.90389 -0.427756 0.417514 0.908667 14.0172 34.0343)" stroke="#9FA2B4"/>
<line y1="-0.5" x2="18.9872" y2="-0.5" transform="matrix(0.90389 -0.427756 0.417514 0.908667 15.4463 37.1445)" stroke="#9FA2B4"/>
<line y1="-0.5" x2="18.9872" y2="-0.5" transform="matrix(0.903891 -0.427755 0.417514 0.908666 16.8754 40.2548)" stroke="#9FA2B4"/>
<rect width="21.7932" height="20.4417" rx="4" transform="matrix(0.903207 -0.42925 0.416054 0.909361 8.37292 24.9611)" stroke="#2EA7F0"/>
<rect x="30.7719" y="4.11804" width="27.7285" height="40.1519" rx="10" fill="#F7F8FC"/>
<rect x="32.8008" y="6.17712" width="23.6707" height="36.0337" rx="5.83333" fill="#F7F8FC" stroke="#9FA2B4"/>
<mask id="mask1_3937_52025" style="mask-type:alpha" maskUnits="userSpaceOnUse" x="36" y="11" width="18" height="27">
<rect x="36.5205" y="11.668" width="16.9076" height="25.3952" fill="#C4C4C4"/>
</mask>
<g mask="url(#mask1_3937_52025)">
<path d="M52.0191 24.7405C52.4004 24.7405 52.7095 24.4318 52.7095 24.0509C52.7095 23.6701 52.4004 23.3613 52.0191 23.3613C51.6378 23.3613 51.3287 23.6701 51.3287 24.0509C51.3287 24.4318 51.6378 24.7405 52.0191 24.7405Z" fill="#9FA2B4"/>
<path d="M50.1694 25.4995L46.432 23.4376C46.432 23.4376 46.6806 23.0008 46.0431 22.8836L45.5944 22.5779C45.5944 22.5779 45.2377 22.3572 45.1134 22.125C45.1134 22.125 44.8971 21.7182 44.3563 21.7664C44.3563 21.7664 42.9525 20.8125 42.7062 20.3412C42.7062 20.3412 41.7397 19.27 40.9733 18.939C40.9733 18.939 40.7731 18.6448 40.5844 18.5276L40.7271 18.3873L40.6926 18.1759C40.6926 18.1759 41.1298 18.1873 41.3185 17.9161C41.5072 17.6449 40.8583 17.3276 40.8583 17.3276C40.8583 17.3276 41.024 16.8794 40.8237 16.4909C40.6235 16.1024 40.0919 15.7714 39.6455 15.7139C39.1967 15.6542 38.5132 15.6427 38.2071 16.3024C37.9011 16.9621 37.9126 17.1989 37.9126 17.1989C37.9126 17.1989 37.4178 17.2932 36.9092 17.8816C36.4029 18.4701 36.3201 19.3896 36.3201 19.3896C36.3201 19.3896 36.3316 19.5551 36.1659 19.8838C36.0002 20.2125 36.0945 20.5205 36.0945 20.5205C36.0945 20.5205 36.0347 20.7918 35.8713 21.0745C35.7056 21.3573 35.9173 22.2285 35.9173 22.2285C35.9173 22.2285 35.9519 22.9939 36.2464 23.3479C36.2464 23.3479 36.0117 24.0536 36.0692 24.7731C36.1291 25.4903 36.0439 26.1179 36.7642 26.7753C37.3073 27.2695 37.3188 28.166 37.3188 28.166C37.3188 28.166 37.3534 29.2257 37.6249 29.7452C37.6249 29.7452 36.1636 30.3107 35.7609 30.7107C35.3604 31.1106 33.379 31.7244 32.7899 31.5589C32.2007 31.3934 31.9407 31.6761 32.012 32.0071C32.0834 32.3382 32.2721 32.6669 32.2721 33.4438C32.2721 34.2208 32.7991 35.0023 32.7991 35.0023C32.7991 35.0023 33.2156 35.4713 33.4802 34.9219C33.5746 34.7265 33.2777 34.0737 33.639 33.6139C33.639 33.6139 33.8393 33.6438 34.0993 33.2186C34.0993 33.2186 34.5826 33.2668 35.1372 32.9841C35.6918 32.7013 39.0885 31.106 39.0885 31.106C39.0885 31.106 39.5833 30.8946 39.5833 30.3636L39.8066 29.0142C39.8066 29.0142 40.3128 29.6395 40.4785 29.7084C40.4785 29.7084 40.9733 30.7681 41.2794 31.0164C41.5855 31.2647 42.483 32.8783 42.483 32.8783C42.483 32.8783 42.5773 33.3611 42.8006 33.3611C42.8006 33.3611 42.5773 33.4553 42.8006 33.7266C42.8006 33.7266 42.529 34.2093 42.6717 34.5633C42.6717 34.5633 42.5842 34.8943 42.7062 35.0115C42.8949 35.1885 43.6152 35.0598 43.9213 35.1288C43.9213 35.1288 45.7739 35.3173 46.1858 35.1242C46.3883 35.0299 46.5632 34.7633 46.172 34.492C46.172 34.492 45.2169 34.4438 44.8395 33.7978C44.8211 33.7656 44.9155 33.5817 44.8948 33.545C44.4874 32.8301 43.514 31.3474 43.2516 30.7015C43.0721 30.2601 42.3196 29.228 42.2321 28.8993C42.1447 28.5683 40.6765 25.9868 40.4279 25.4191C40.4279 25.4191 40.276 24.4191 39.7122 23.8353C39.7122 23.8353 40.0574 23.5433 40.0574 23.2974C40.0574 23.2974 40.9411 23.9433 41.5786 23.987C42.216 24.0306 43.6521 23.9663 44.0847 23.7985C45.4839 24.1111 45.8337 23.9065 45.8337 23.9065C45.8337 23.9065 46.0017 23.9778 46.2226 23.7042C46.2226 23.7042 49.1959 25.7271 49.6677 25.9983C50.1395 26.2696 51.7826 27.3201 51.9552 27.4258C52.1255 27.5316 52.687 27.2718 52.3763 26.8374L50.1694 25.4995ZM44.1583 23.1365C43.3046 23.1112 41.9376 22.9893 41.689 22.5204C41.2886 21.7549 40.9227 21.4607 40.9227 21.4607C41.1114 21.155 40.8514 20.6493 40.8514 20.6493C41.2518 20.955 41.9951 21.2975 41.9951 21.2975C41.9951 21.2975 43.6705 21.7917 43.965 22.3687C44.2596 22.9457 44.8971 23.1342 44.8971 23.1342C44.8971 23.1342 44.5473 22.9686 44.1583 23.1365Z" fill="#9FA2B4"/>
</g>
<path fill-rule="evenodd" clip-rule="evenodd" d="M50.5299 10.1377H38.7424C38.3137 11.0224 37.6032 11.7458 36.7248 12.1833V36.2048C37.6031 36.6423 38.3135 37.3655 38.7423 38.2501H50.5299C50.9587 37.3655 51.6691 36.6423 52.5474 36.2048V12.1831C51.6691 11.7456 50.9587 11.0223 50.5299 10.1377ZM54.4989 11.432H55.4641V36.9559H54.4989V38.6644C53.6904 38.6644 52.9984 39.3356 52.9984 40.2089H51.2935V41.1668H37.9787V40.2089H36.2738C36.2738 39.3356 35.5818 38.6644 34.7733 38.6644V36.9559H33.8081V11.1817H34.7735V9.72356C35.5819 9.72356 36.2739 9.05243 36.2739 8.17908H37.7321V7.22107H51.2935V8.17896H52.9984C52.9984 9.05231 53.6904 9.72344 54.4989 9.72344V11.432Z" fill="#2EA7F0"/>
</svg>
