<svg width="40" height="60" viewBox="0 0 40 60" fill="none" xmlns="http://www.w3.org/2000/svg">
<rect x="1" y="1.54492" width="38" height="57" rx="3.16667" stroke="#9FA2B4" stroke-width="2"/>
<path fill-rule="evenodd" clip-rule="evenodd" d="M29.8749 8.04492H10.1261C9.5681 9.47428 8.4294 10.6129 7 11.1709V48.9197C8.42896 49.4776 9.56733 50.616 10.1253 52.0449H29.8749C30.4329 50.616 31.5711 49.4777 33 48.9197V11.1701C31.5711 10.6121 30.4328 9.4738 29.8749 8.04492ZM35 11.1256H35V48.9643H35V50.5448C33.067 50.5448 31.5 52.1118 31.5 54.0448H29.9474V54.0449H10.0526V54.0448H8.50023C8.50023 52.1118 6.93323 50.5448 5.00025 50.5448V48.9643H5V10.7546H5.00086V9.54548C6.93385 9.54548 8.50084 7.97848 8.50084 6.0455H9.68421V6.04492H29.9474V6.04507H31.5C31.5 7.97806 33.067 9.54505 35 9.54505V11.1256Z" fill="#9FA2B4"/>
<mask id="mask0_2323_4418" style="mask-type:alpha" maskUnits="userSpaceOnUse" x="7" y="6" width="26" height="47">
<path fill-rule="evenodd" clip-rule="evenodd" d="M7 6.54492H33V48.9083C31.4214 49.5214 30.284 50.8605 29.7837 52.5449H10.2163C9.71602 50.8605 8.57862 49.5214 7 48.9083V6.54492Z" fill="#C4C4C4"/>
</mask>
<g mask="url(#mask0_2323_4418)">
<path d="M56.2707 9.58834C56.2707 9.67098 56.2485 9.75216 56.2063 9.82373L51.0704 18.6155C50.9422 18.8341 50.8748 19.0817 50.8748 19.3338C50.8748 19.5859 50.9422 19.8336 51.0704 20.0522L56.1871 28.8392C56.2293 28.9108 56.2515 28.992 56.2515 29.0746C56.2515 29.1572 56.2294 29.2384 56.1872 29.31C56.1451 29.3816 56.0846 29.4411 56.0116 29.4825C55.9386 29.5238 55.8558 29.5457 55.7715 29.5458H52.6487C52.5134 29.5459 52.3806 29.5109 52.2637 29.4443C52.1468 29.3777 52.05 29.2819 51.9832 29.1666L48.942 23.9546C48.8837 23.8543 48.7992 23.7708 48.6973 23.7128C48.5955 23.6548 48.4797 23.6242 48.3619 23.6242C48.2441 23.6242 48.1283 23.6548 48.0264 23.7128C47.9245 23.7708 47.8401 23.8543 47.7817 23.9546L44.7381 29.1666C44.671 29.282 44.5738 29.378 44.4565 29.4446C44.3391 29.5112 44.2059 29.5461 44.0703 29.5458H40.9474C40.8631 29.5457 40.7803 29.5238 40.7074 29.4825C40.6344 29.4411 40.5738 29.3816 40.5317 29.31C40.4896 29.2384 40.4675 29.1572 40.4675 29.0746C40.4675 28.992 40.4897 28.9108 40.5318 28.8392L45.6606 20.0474C45.7892 19.829 45.8569 19.5813 45.8569 19.3291C45.8569 19.0769 45.7892 18.8292 45.6606 18.6108L40.527 9.82373C40.4849 9.75216 40.4627 9.67098 40.4627 9.58834C40.4627 9.5057 40.4848 9.4245 40.5269 9.35291C40.569 9.28132 40.6296 9.22185 40.7026 9.18048C40.7756 9.1391 40.8583 9.11727 40.9426 9.11719H44.0655C44.2007 9.11724 44.3334 9.15234 44.4503 9.21894C44.5672 9.28553 44.664 9.38124 44.7309 9.49637L47.7769 14.7177C47.8358 14.8175 47.9204 14.9003 48.0222 14.9579C48.1241 15.0155 48.2395 15.0458 48.3571 15.0458C48.4746 15.0458 48.5901 15.0155 48.6919 14.9579C48.7938 14.9003 48.8784 14.8175 48.9372 14.7177L52.0025 9.49637C52.0692 9.38108 52.166 9.28523 52.2829 9.21862C52.3998 9.152 52.5326 9.117 52.6679 9.11719H55.7908C55.875 9.11727 55.9578 9.1391 56.0308 9.18048C56.1038 9.22185 56.1644 9.28132 56.2065 9.35291C56.2486 9.4245 56.2707 9.5057 56.2707 9.58834Z" fill="#9FA2B4"/>
<path d="M20.2572 9.11719H17.8814C17.7937 9.11719 17.7068 9.13412 17.6258 9.16703C17.5448 9.19993 17.4712 9.24816 17.4092 9.30895C17.3472 9.36975 17.298 9.44193 17.2644 9.52136C17.2308 9.6008 17.2136 9.68594 17.2136 9.77192V19.8802C17.2127 19.9956 17.1732 20.1075 17.1012 20.1989C17.0293 20.2902 16.9287 20.3558 16.8151 20.3857C16.7014 20.4157 16.5808 20.4082 16.4719 20.3646C16.3629 20.3209 16.2716 20.2434 16.2118 20.144L9.90121 9.49166C9.83366 9.37792 9.73692 9.2835 9.6206 9.2178C9.50428 9.1521 9.37244 9.11741 9.23819 9.11719H6.66782C6.4909 9.11781 6.3214 9.18699 6.1963 9.30964C6.0712 9.43229 6.00063 9.59847 6 9.77192V28.8863C6.00063 29.0598 6.0712 29.2259 6.1963 29.3486C6.3214 29.4712 6.4909 29.5404 6.66782 29.541H9.04361C9.22073 29.541 9.39059 29.4721 9.51583 29.3493C9.64107 29.2265 9.71143 29.06 9.71143 28.8863V18.7992C9.71283 18.684 9.75266 18.5724 9.82482 18.4815C9.89698 18.3906 9.99752 18.3253 10.1111 18.2957C10.2246 18.2661 10.345 18.2737 10.4537 18.3174C10.5624 18.3611 10.6535 18.4385 10.7132 18.5378L16.9974 29.1666C17.0653 29.2805 17.1625 29.375 17.2792 29.4407C17.3959 29.5064 17.5282 29.541 17.6628 29.541H20.2572C20.4341 29.5404 20.6036 29.4712 20.7287 29.3486C20.8538 29.2259 20.9244 29.0598 20.925 28.8863V9.77192C20.9244 9.59847 20.8538 9.43229 20.7287 9.30964C20.6036 9.18699 20.4341 9.11781 20.2572 9.11719Z" fill="#9FA2B4"/>
<path fill-rule="evenodd" clip-rule="evenodd" d="M35.9004 9.43278C35.8017 9.3326 35.6833 9.25301 35.5525 9.19878C35.4216 9.14455 35.2809 9.1168 35.1389 9.11719H27.1395C26.9975 9.11706 26.8569 9.14494 26.726 9.19915C26.5952 9.25337 26.4769 9.33282 26.378 9.43278L24.1896 11.6443C23.9994 11.8385 23.8942 12.098 23.8965 12.3673V19.9697C23.8965 20.2395 24.0033 20.4987 24.1944 20.6928L26.3828 22.9042C26.4814 23.0032 26.5991 23.0821 26.7289 23.1362C26.8588 23.1904 26.9983 23.2188 27.1395 23.2198H35.1389C35.2809 23.2197 35.4214 23.1917 35.5522 23.1375C35.6829 23.0833 35.8013 23.004 35.9004 22.9042L38.0888 20.6928C38.2799 20.4987 38.3867 20.2395 38.3867 19.9697V12.3673C38.3877 12.0974 38.2808 11.8378 38.0888 11.6443L35.9004 9.43278ZM34.6296 18.9311C34.6296 19.105 34.5593 19.2717 34.4342 19.3949C34.309 19.5181 34.1391 19.5876 33.9618 19.5882H28.3214C28.144 19.5876 27.9742 19.5181 27.849 19.3949C27.7238 19.2717 27.6536 19.105 27.6536 18.9311V13.3164C27.6523 13.2295 27.6686 13.1433 27.7016 13.0626C27.7345 12.982 27.7835 12.9085 27.8456 12.8465C27.9077 12.7845 27.9817 12.7352 28.0634 12.7015C28.1451 12.6678 28.2327 12.6502 28.3214 12.6499H33.9618C34.1391 12.6505 34.309 12.72 34.4342 12.8432C34.5593 12.9664 34.6296 13.1331 34.6296 13.307V18.9311Z" fill="#9FA2B4"/>
<path d="M68.9045 20.0521C68.7771 19.8334 68.71 19.5858 68.71 19.3338C68.71 19.0819 68.7771 18.8343 68.9045 18.6155L74.0309 9.82373C74.073 9.75216 74.0952 9.67098 74.0952 9.58834C74.0953 9.5057 74.0731 9.4245 74.031 9.35291C73.9889 9.28132 73.9283 9.22185 73.8553 9.18048C73.7824 9.1391 73.6996 9.11727 73.6153 9.11719H70.4924C70.3572 9.11724 70.2245 9.15234 70.1076 9.21894C69.9907 9.28553 69.8939 9.38124 69.827 9.49637L66.7762 14.7177C66.7173 14.8175 66.6327 14.9003 66.5309 14.9579C66.4291 15.0155 66.3136 15.0458 66.196 15.0458C66.0785 15.0458 65.963 15.0155 65.8612 14.9579C65.7593 14.9003 65.6747 14.8175 65.6159 14.7177L62.5651 9.49637C62.4981 9.38124 62.4013 9.28553 62.2844 9.21894C62.1676 9.15234 62.0348 9.11724 61.8997 9.11719H58.7768C58.6931 9.1185 58.6112 9.14121 58.5392 9.18309C58.4673 9.22497 58.4077 9.28455 58.3664 9.35593C58.3252 9.42732 58.3036 9.50804 58.304 9.59009C58.3043 9.67214 58.3265 9.75268 58.3684 9.82373L63.4971 18.6155C63.6246 18.8343 63.6916 19.0819 63.6916 19.3338C63.6916 19.5858 63.6246 19.8334 63.4971 20.0521L58.3684 28.8392C58.3262 28.9108 58.304 28.992 58.304 29.0746C58.304 29.1572 58.3262 29.2384 58.3683 29.31C58.4104 29.3816 58.471 29.4411 58.5439 29.4825C58.6169 29.5238 58.6997 29.5457 58.784 29.5458H61.9069C62.042 29.5457 62.1748 29.5106 62.2916 29.444C62.4085 29.3774 62.5053 29.2817 62.5723 29.1666L65.6159 23.9546C65.6743 23.8543 65.7587 23.7708 65.8606 23.7128C65.9624 23.6548 66.0782 23.6242 66.196 23.6242C66.3139 23.6242 66.4296 23.6548 66.5315 23.7128C66.6334 23.7708 66.7178 23.8543 66.7762 23.9546L69.8174 29.1666C69.8843 29.2817 69.9811 29.3774 70.098 29.444C70.2149 29.5106 70.3476 29.5457 70.4828 29.5458H73.6057C73.69 29.5457 73.7728 29.5238 73.8457 29.4825C73.9187 29.4411 73.9793 29.3816 74.0214 29.31C74.0635 29.2384 74.0856 29.1572 74.0856 29.0746C74.0856 28.992 74.0634 28.9108 74.0213 28.8392L68.9045 20.0521Z" fill="#9FA2B4"/>
<path d="M24.5643 25.999H37.7212C38.09 25.999 38.389 26.2921 38.389 26.6537V28.8864C38.389 29.248 38.09 29.5411 37.7212 29.5411H24.5643C24.1954 29.5411 23.8964 29.248 23.8964 28.8864V26.6537C23.8964 26.2921 24.1954 25.999 24.5643 25.999Z" fill="#9FA2B4"/>
<path d="M21.2707 32.5883C21.2707 32.671 21.2485 32.7522 21.2063 32.8237L16.0704 41.6155C15.9422 41.8341 15.8748 42.0817 15.8748 42.3338C15.8748 42.5859 15.9422 42.8336 16.0704 43.0522L21.1871 51.8392C21.2293 51.9108 21.2515 51.992 21.2515 52.0746C21.2515 52.1572 21.2294 52.2384 21.1872 52.31C21.1451 52.3816 21.0846 52.4411 21.0116 52.4825C20.9386 52.5238 20.8558 52.5457 20.7715 52.5458H17.6487C17.5134 52.5459 17.3806 52.5109 17.2637 52.4443C17.1468 52.3777 17.05 52.2819 16.9832 52.1666L13.942 46.9546C13.8837 46.8543 13.7992 46.7708 13.6973 46.7128C13.5955 46.6548 13.4797 46.6242 13.3619 46.6242C13.2441 46.6242 13.1283 46.6548 13.0264 46.7128C12.9245 46.7708 12.8401 46.8543 12.7817 46.9546L9.73814 52.1666C9.67099 52.282 9.57379 52.378 9.45647 52.4446C9.33915 52.5112 9.2059 52.5461 9.07032 52.5458H5.94743C5.86314 52.5457 5.78035 52.5238 5.70738 52.4825C5.63441 52.4411 5.57383 52.3816 5.53173 52.31C5.48962 52.2384 5.46746 52.1572 5.46749 52.0746C5.46751 51.992 5.4897 51.9108 5.53185 51.8392L10.6606 43.0474C10.7892 42.829 10.8569 42.5813 10.8569 42.3291C10.8569 42.0769 10.7892 41.8292 10.6606 41.6108L5.52705 32.8237C5.4849 32.7522 5.4627 32.671 5.46268 32.5883C5.46266 32.5057 5.48481 32.4245 5.52692 32.3529C5.56903 32.2813 5.62961 32.2219 5.70258 32.1805C5.77555 32.1391 5.85834 32.1173 5.94263 32.1172H9.06552C9.20069 32.1172 9.33344 32.1523 9.4503 32.2189C9.56717 32.2855 9.66398 32.3812 9.73093 32.4964L12.7769 37.7177C12.8358 37.8175 12.9204 37.9003 13.0222 37.9579C13.1241 38.0155 13.2395 38.0458 13.3571 38.0458C13.4746 38.0458 13.5901 38.0155 13.6919 37.9579C13.7938 37.9003 13.8784 37.8175 13.9372 37.7177L17.0025 32.4964C17.0692 32.3811 17.166 32.2852 17.2829 32.2186C17.3998 32.152 17.5326 32.117 17.6679 32.1172H20.7908C20.875 32.1173 20.9578 32.1391 21.0308 32.1805C21.1038 32.2219 21.1644 32.2813 21.2065 32.3529C21.2486 32.4245 21.2707 32.5057 21.2707 32.5883Z" fill="#9FA2B4"/>
<path d="M-14.7428 32.1172H-17.1186C-17.2063 32.1172 -17.2932 32.1341 -17.3742 32.167C-17.4552 32.1999 -17.5288 32.2482 -17.5908 32.309C-17.6528 32.3698 -17.702 32.4419 -17.7356 32.5214C-17.7692 32.6008 -17.7864 32.6859 -17.7864 32.7719V42.8802C-17.7873 42.9956 -17.8268 43.1075 -17.8988 43.1989C-17.9707 43.2902 -18.0713 43.3558 -18.1849 43.3857C-18.2986 43.4157 -18.4192 43.4082 -18.5281 43.3646C-18.6371 43.3209 -18.7284 43.2434 -18.7882 43.144L-25.0988 32.4917C-25.1663 32.3779 -25.2631 32.2835 -25.3794 32.2178C-25.4957 32.1521 -25.6276 32.1174 -25.7618 32.1172H-28.3322C-28.5091 32.1178 -28.6786 32.187 -28.8037 32.3096C-28.9288 32.4323 -28.9994 32.5985 -29 32.7719V51.8863C-28.9994 52.0598 -28.9288 52.2259 -28.8037 52.3486C-28.6786 52.4712 -28.5091 52.5404 -28.3322 52.541H-25.9564C-25.7793 52.541 -25.6094 52.4721 -25.4842 52.3493C-25.3589 52.2265 -25.2886 52.06 -25.2886 51.8863V41.7992C-25.2872 41.684 -25.2473 41.5724 -25.1752 41.4815C-25.103 41.3906 -25.0025 41.3253 -24.8889 41.2957C-24.7754 41.2661 -24.655 41.2737 -24.5463 41.3174C-24.4376 41.3611 -24.3465 41.4385 -24.2868 41.5378L-18.0026 52.1666C-17.9347 52.2805 -17.8375 52.375 -17.7208 52.4407C-17.6041 52.5064 -17.4718 52.541 -17.3372 52.541H-14.7428C-14.5659 52.5404 -14.3964 52.4712 -14.2713 52.3486C-14.1462 52.2259 -14.0756 52.0598 -14.075 51.8863V32.7719C-14.0756 32.5985 -14.1462 32.4323 -14.2713 32.3096C-14.3964 32.187 -14.5659 32.1178 -14.7428 32.1172Z" fill="#9FA2B4"/>
<path fill-rule="evenodd" clip-rule="evenodd" d="M0.900381 32.4328C0.801676 32.3326 0.683346 32.253 0.552488 32.1988C0.421631 32.1445 0.280945 32.1168 0.138878 32.1172H-7.86052C-8.00254 32.1171 -8.14315 32.1449 -8.27397 32.1992C-8.40479 32.2534 -8.52315 32.3328 -8.62202 32.4328L-10.8104 34.6443C-11.0006 34.8385 -11.1058 35.098 -11.1035 35.3673V42.9697C-11.1035 43.2395 -10.9967 43.4987 -10.8056 43.6928L-8.61722 45.9042C-8.51858 46.0032 -8.40093 46.0821 -8.27106 46.1362C-8.14118 46.1904 -8.00165 46.2188 -7.86052 46.2198H0.138878C0.280863 46.2197 0.421383 46.1917 0.552164 46.1375C0.682947 46.0833 0.801342 46.004 0.900381 45.9042L3.0888 43.6928C3.2799 43.4987 3.38669 43.2395 3.38668 42.9697V35.3673C3.3877 35.0974 3.28076 34.8378 3.0888 34.6443L0.900381 32.4328ZM-0.370396 41.9311C-0.370394 42.105 -0.440678 42.2717 -0.565847 42.3949C-0.691021 42.5181 -0.860874 42.5876 -1.03821 42.5882H-6.67862C-6.85596 42.5876 -7.02582 42.5181 -7.15099 42.3949C-7.27616 42.2717 -7.34644 42.105 -7.34644 41.9311V36.3164C-7.34771 36.2295 -7.3314 36.1433 -7.29843 36.0626C-7.26547 35.982 -7.21652 35.9085 -7.15441 35.8465C-7.0923 35.7845 -7.01827 35.7352 -6.93661 35.7015C-6.85493 35.6678 -6.76725 35.6502 -6.67862 35.6499H-1.03821C-0.860874 35.6505 -0.691021 35.72 -0.565847 35.8432C-0.440678 35.9664 -0.370394 36.1331 -0.370396 36.307V41.9311Z" fill="#9FA2B4"/>
<path d="M33.9045 43.0521C33.7771 42.8334 33.71 42.5858 33.71 42.3338C33.71 42.0819 33.7771 41.8343 33.9045 41.6155L39.0309 32.8237C39.073 32.7522 39.0952 32.671 39.0952 32.5883C39.0953 32.5057 39.0731 32.4245 39.031 32.3529C38.9889 32.2813 38.9283 32.2219 38.8553 32.1805C38.7824 32.1391 38.6996 32.1173 38.6153 32.1172H35.4924C35.3572 32.1172 35.2245 32.1523 35.1076 32.2189C34.9907 32.2855 34.8939 32.3812 34.827 32.4964L31.7762 37.7177C31.7173 37.8175 31.6327 37.9003 31.5309 37.9579C31.4291 38.0155 31.3136 38.0458 31.196 38.0458C31.0785 38.0458 30.963 38.0155 30.8612 37.9579C30.7593 37.9003 30.6747 37.8175 30.6159 37.7177L27.5651 32.4964C27.4981 32.3812 27.4013 32.2855 27.2844 32.2189C27.1676 32.1523 27.0348 32.1172 26.8997 32.1172H23.7768C23.6931 32.1185 23.6112 32.1412 23.5392 32.1831C23.4673 32.225 23.4077 32.2845 23.3664 32.3559C23.3252 32.4273 23.3036 32.508 23.304 32.5901C23.3043 32.6721 23.3265 32.7527 23.3684 32.8237L28.4971 41.6155C28.6246 41.8343 28.6916 42.0819 28.6916 42.3338C28.6916 42.5858 28.6246 42.8334 28.4971 43.0521L23.3684 51.8392C23.3262 51.9108 23.304 51.992 23.304 52.0746C23.304 52.1572 23.3262 52.2384 23.3683 52.31C23.4104 52.3816 23.471 52.4411 23.5439 52.4825C23.6169 52.5238 23.6997 52.5457 23.784 52.5458H26.9069C27.042 52.5457 27.1748 52.5106 27.2916 52.444C27.4085 52.3774 27.5053 52.2817 27.5723 52.1666L30.6159 46.9546C30.6743 46.8543 30.7587 46.7708 30.8606 46.7128C30.9624 46.6548 31.0782 46.6242 31.196 46.6242C31.3139 46.6242 31.4296 46.6548 31.5315 46.7128C31.6334 46.7708 31.7178 46.8543 31.7762 46.9546L34.8174 52.1666C34.8843 52.2817 34.9811 52.3774 35.098 52.444C35.2149 52.5106 35.3476 52.5457 35.4828 52.5458H38.6057C38.69 52.5457 38.7728 52.5238 38.8457 52.4825C38.9187 52.4411 38.9793 52.3816 39.0214 52.31C39.0635 52.2384 39.0856 52.1572 39.0856 52.0746C39.0856 51.992 39.0634 51.9108 39.0213 51.8392L33.9045 43.0521Z" fill="#9FA2B4"/>
<path d="M-10.4357 48.999H2.72122C3.09005 48.999 3.38904 49.2921 3.38904 49.6537V51.8864C3.38904 52.248 3.09005 52.5411 2.72122 52.5411H-10.4357C-10.8046 52.5411 -11.1036 52.248 -11.1036 51.8864V49.6537C-11.1036 49.2921 -10.8046 48.999 -10.4357 48.999Z" fill="#9FA2B4"/>
</g>
</svg>
