<svg width="26" height="33" viewBox="0 0 26 33" fill="none" xmlns="http://www.w3.org/2000/svg">
<g clip-path="url(#clip0_1971_3337)">
<path d="M25.4531 25.4387C23.5151 24.3699 21.4329 23.5842 19.2701 23.1068C19.2277 23.0984 19.2022 23.0604 19.2022 23.0181V21.7508C19.9486 20.7792 20.5084 19.6766 20.8477 18.5022C21.6958 17.6573 22.0732 16.3435 22.2725 15.6296C22.6033 14.4721 22.9341 12.795 22.0223 11.5953L21.9842 11.5446C22.4082 9.43237 22.968 4.46867 19.1768 1.95092C19.6221 1.50313 19.8638 0.890589 19.8468 0.26115C19.8426 0.202008 19.8129 0.142866 19.7663 0.104846C19.7196 0.0668266 19.656 0.0499289 19.5966 0.0541534C19.55 0.0541534 14.8046 0.590655 12.5231 0.121744C10.2416 -0.347167 7.60381 1.41019 7.07372 3.22669C6.1874 3.34075 5.38166 3.79699 4.82612 4.49402C3.79138 5.76135 3.47332 7.78907 3.88468 10.5054C3.91012 10.856 3.95677 11.1982 4.01614 11.553L3.97373 11.6037C3.07045 12.7781 3.40123 14.4594 3.73201 15.6127C3.93557 16.3266 4.30875 17.6489 5.1569 18.4811C5.49616 19.6639 6.05594 20.7749 6.80655 21.755V23.0223C6.80655 23.0646 6.78111 23.1026 6.7387 23.111C4.57592 23.5884 2.48947 24.3699 0.551452 25.4387C0.0298401 25.7344 -0.152512 26.3977 0.14434 26.9215C0.19947 27.0144 0.263081 27.0989 0.343655 27.1707C7.51899 33.6721 18.4856 33.6721 25.6609 27.1707C26.0977 26.761 26.1189 26.0724 25.7033 25.6373C25.6312 25.557 25.5464 25.4936 25.4531 25.4387ZM13.0023 27.6692C10.9964 27.6903 9.10079 26.7483 7.91338 25.1345C8.43075 24.8473 8.82938 24.3784 9.02446 23.8208C9.55455 24.1672 10.1228 24.4544 10.7208 24.6656C12.2008 25.1852 13.8165 25.1852 15.2965 24.6656C15.8945 24.4502 16.4627 24.1672 16.9928 23.8208C17.1879 24.3868 17.5823 24.86 18.1081 25.1514C16.9122 26.7652 15.0124 27.703 13.0023 27.6692ZM18.9478 17.3025C18.6382 19.3091 17.0352 21.8015 14.5756 22.6844C13.5536 23.0435 12.4425 23.0435 11.4205 22.6844C8.87603 21.7846 7.36633 19.2626 7.06099 17.294C7.04403 17.1926 6.96346 17.1124 6.85744 17.1039C6.73446 17.1039 6.3019 16.9138 5.76757 15.034C5.34349 13.5639 5.52584 13.0316 5.67003 12.8457C5.77181 12.719 5.93296 12.6514 6.0941 12.6683H6.1662C6.28918 12.6767 6.3952 12.5838 6.40368 12.4613C6.40368 12.4275 6.6666 9.26339 8.54949 8.1228C9.49094 7.5525 10.6996 7.57363 12.1414 8.18617C15.1099 9.45349 17.2897 9.36056 18.6255 9.06485C20.1522 10.1843 19.7111 11.9797 19.6094 12.3261V12.3683C19.5839 12.4402 19.5966 12.5204 19.6433 12.5796C19.6899 12.6387 19.7663 12.6725 19.8426 12.6641C20.0292 12.6303 20.22 12.6936 20.3472 12.8373C20.4872 13.0231 20.6653 13.5596 20.2497 15.0255C19.7154 16.9096 19.2786 17.087 19.1598 17.0955C19.0453 17.0997 18.952 17.1884 18.9478 17.3025Z" fill="#9FA2B4"/>
</g>
<defs>
<clipPath id="clip0_1971_3337">
<rect width="26" height="32" fill="white" transform="translate(0 0.0449219)"/>
</clipPath>
</defs>
</svg>
