<svg width="20" height="22" viewBox="0 0 20 22" fill="none" xmlns="http://www.w3.org/2000/svg">
<path d="M4.76172 4.82617V3.82617C4.76172 2.7216 5.65715 1.82617 6.76172 1.82617H16.7617C17.8663 1.82617 18.7617 2.7216 18.7617 3.82617V18.8262C18.7617 19.9307 17.8663 20.8262 16.7617 20.8262H6.76172C5.65715 20.8262 4.76172 19.9307 4.76172 18.8262V18.8262" stroke="#258AFF" stroke-width="2" stroke-linecap="round" stroke-linejoin="round"/>
<path fill-rule="evenodd" clip-rule="evenodd" d="M5.76172 8.82617C5.76172 8.27389 5.314 7.82617 4.76172 7.82617C4.20943 7.82617 3.76172 8.27389 3.76172 8.82617V10.8262L1.76172 10.8262C1.20943 10.8262 0.761719 11.2739 0.761719 11.8262C0.761719 12.3785 1.20943 12.8262 1.76172 12.8262H3.76172V14.8262C3.76172 15.3785 4.20943 15.8262 4.76172 15.8262C5.314 15.8262 5.76172 15.3785 5.76172 14.8262V12.8262H7.76172C8.314 12.8262 8.76172 12.3785 8.76172 11.8262C8.76172 11.2739 8.314 10.8262 7.76172 10.8262L5.76172 10.8262V8.82617Z" fill="#258AFF"/>
</svg>
