<svg width="30" height="29" viewBox="0 0 30 29" fill="none" xmlns="http://www.w3.org/2000/svg">
<path d="M5.33334 20.871C5.33334 22.743 6.20434 24.2605 8.02525 24.2605L8.53812 24.2605C9.14509 24.2605 9.63713 23.7547 9.63713 23.1307C9.63713 22.5067 9.14509 22.0009 8.53812 22.0009L8.02525 22.0009C7.41828 22.0009 7.53137 21.495 7.53137 20.871L7.53137 5.06212C7.53137 4.43812 8.02342 3.93228 8.63038 3.93228L20.1613 3.93228C20.7683 3.93228 21.2603 4.43812 21.2603 5.06212L21.2603 21.2727C21.2603 21.6749 21.3235 22.0009 20.9324 22.0009C20.3254 22.0009 19.8333 22.5067 19.8333 23.1307C19.8333 23.7547 20.3254 24.2605 20.9324 24.2605C22.5375 24.2605 23.4583 22.9229 23.4583 21.2727L23.4583 5.06212C23.4583 3.19014 21.9822 1.67261 20.1613 1.67261L8.63038 1.67261C6.80948 1.67261 5.33334 3.19014 5.33334 5.06212L5.33334 20.871Z" fill="white"/>
<path d="M10.9895 23.32C10.9895 22.696 11.4815 22.1902 12.0885 22.1902L13.7024 22.1902L13.7024 20.6838C13.7024 20.0598 14.3332 19.5539 14.9402 19.5539C15.5472 19.5539 16.0392 20.0598 16.0392 20.6838L16.0392 22.1902L17.526 22.1902C18.133 22.1902 18.625 22.696 18.625 23.32C18.625 23.944 18.133 24.4499 17.526 24.4499L16.0392 24.4499L16.0392 26.2576C16.0392 26.8816 15.5472 27.3875 14.9402 27.3875C14.3332 27.3875 13.7024 26.8816 13.7024 26.2576L13.7024 24.4499L12.0885 24.4499C11.4815 24.4499 10.9895 23.944 10.9895 23.32Z" fill="white"/>
</svg>
