<svg width="16" height="16" viewBox="0 0 16 16" fill="none" xmlns="http://www.w3.org/2000/svg">
<path fill-rule="evenodd" clip-rule="evenodd" d="M0.522961 13.9901C0.132436 14.3806 0.132436 15.0138 0.522961 15.4043C0.913485 15.7948 1.54665 15.7948 1.93717 15.4043L13.4427 3.89879L13.4426 13.2852C13.4426 13.8375 13.8903 14.2852 14.4426 14.2853C14.9949 14.2853 15.4426 13.8375 15.4426 13.2853L15.4427 1.68545C15.4482 1.64282 15.4511 1.59934 15.4511 1.5552C15.451 1.00291 15.0032 0.555273 14.4509 0.555367L2.73793 0.557386C2.18565 0.557483 1.73801 1.00527 1.7381 1.55756C1.7382 2.10984 2.18599 2.55748 2.73828 2.55739L11.9573 2.5558L0.522961 13.9901Z" fill="#9FA2B4"/>
</svg>
