<svg width="27" height="28" viewBox="0 0 27 28" fill="none" xmlns="http://www.w3.org/2000/svg">
<path d="M20.5001 6.81946L23.9732 8.09886C25.0068 8.47963 25.5379 9.62451 25.1612 10.6596L20.0138 24.8021C19.6358 25.8406 18.4872 26.3756 17.449 25.997L6.00005 21.8208" stroke="#C6C9DA" stroke-width="2" stroke-linecap="round" stroke-linejoin="round"/>
<path d="M15.5092 4.28332L18.539 4.81755C19.6268 5.00936 20.3531 6.04668 20.1613 7.13446L17.5549 21.916C17.3622 23.009 16.3165 23.736 15.2248 23.536L5.38675 21.7331C4.96727 21.6562 4.76344 21.1752 5 20.8203V20.8203" stroke="#B4B7CB" stroke-width="2" stroke-linecap="round" stroke-linejoin="round"/>
<rect x="1" y="1.82031" width="14" height="19" rx="2" stroke="#9FA2B4" stroke-width="2" stroke-linecap="round" stroke-linejoin="round"/>
<path fill-rule="evenodd" clip-rule="evenodd" d="M7.40185 3.82031H6.66833C6.64126 3.82031 6.61445 3.82605 6.58943 3.83721C6.56441 3.84836 6.54168 3.86471 6.52254 3.88531C6.50339 3.90592 6.4882 3.93039 6.47784 3.95731C6.46748 3.98424 6.46215 4.0131 6.46215 4.04224V7.46854C6.46187 7.50766 6.44969 7.54559 6.42747 7.57654C6.40525 7.60749 6.37421 7.62975 6.33911 7.63989C6.30401 7.65004 6.26679 7.64752 6.23315 7.63272C6.19951 7.61792 6.17131 7.59165 6.15287 7.55795L4.20448 3.94724C4.18363 3.90869 4.15376 3.87668 4.11785 3.85442C4.08193 3.83215 4.04123 3.82039 3.99978 3.82031H3.20619C3.15156 3.82052 3.09923 3.84397 3.06061 3.88555C3.02198 3.92712 3.0002 3.98345 3 4.04224V10.5212C3.0002 10.58 3.02198 10.6364 3.06061 10.6779C3.09923 10.7195 3.15156 10.743 3.20619 10.7432H3.9397C3.99439 10.7432 4.04683 10.7198 4.0855 10.6782C4.12417 10.6365 4.14589 10.5801 4.14589 10.5212V7.10212C4.14632 7.06307 4.15862 7.02525 4.1809 6.99443C4.20318 6.96362 4.23422 6.9415 4.26928 6.93145C4.30434 6.92141 4.34149 6.92399 4.37506 6.93881C4.40862 6.95362 4.43676 6.97986 4.45517 7.01351L6.3954 10.6162C6.41637 10.6549 6.44637 10.6869 6.48241 10.7092C6.51845 10.7314 6.55928 10.7431 6.60084 10.7432H7.40185C7.45648 10.743 7.50881 10.7195 7.54743 10.6779C7.58606 10.6364 7.60784 10.58 7.60804 10.5212V4.04224C7.60784 3.98345 7.58606 3.92712 7.54743 3.88555C7.50881 3.84397 7.45648 3.82052 7.40185 3.82031ZM12.2316 3.92729C12.2012 3.89333 12.1646 3.86635 12.1242 3.84797C12.0838 3.82959 12.0404 3.82018 11.9965 3.82031H9.52674C9.48289 3.82027 9.43948 3.82972 9.39909 3.84809C9.3587 3.86647 9.32215 3.8934 9.29163 3.92729L8.61596 4.67689C8.55723 4.74274 8.52476 4.83069 8.52548 4.92197V7.49888C8.52547 7.59031 8.55844 7.67817 8.61744 7.74396L9.29311 8.49356C9.32356 8.52711 9.35989 8.55383 9.39999 8.57219C9.44008 8.59055 9.48316 8.60018 9.52674 8.60053H11.9965C12.0404 8.60048 12.0837 8.59099 12.1241 8.57262C12.1645 8.55425 12.2011 8.52737 12.2316 8.49356L12.9073 7.74396C12.9663 7.67817 12.9993 7.59031 12.9993 7.49888V4.92197C12.9996 4.83047 12.9666 4.74248 12.9073 4.67689L12.2316 3.92729ZM11.8393 7.14683C11.8393 7.20576 11.8176 7.26229 11.7789 7.30404C11.7403 7.34578 11.6879 7.36934 11.6331 7.36955H9.89164C9.83689 7.36934 9.78445 7.34578 9.7458 7.30404C9.70716 7.26229 9.68546 7.20576 9.68546 7.14683V5.24368C9.68507 5.21423 9.6901 5.18499 9.70028 5.15765C9.71046 5.13031 9.72557 5.10542 9.74475 5.08441C9.76392 5.0634 9.78678 5.04669 9.81199 5.03525C9.83721 5.02381 9.86428 5.01787 9.89164 5.01776H11.6331C11.6879 5.01797 11.7403 5.04153 11.7789 5.08328C11.8176 5.12503 11.8393 5.18156 11.8393 5.24049V7.14683ZM12.7938 9.54254H8.73165C8.61778 9.54254 8.52546 9.6419 8.52546 9.76447V10.5213C8.52546 10.6438 8.61778 10.7432 8.73165 10.7432H12.7938C12.9077 10.7432 13 10.6438 13 10.5213V9.76447C13 9.6419 12.9077 9.54254 12.7938 9.54254ZM7.68108 12.1365C7.69361 12.1123 7.70021 12.0848 7.70022 12.0567C7.70022 12.0287 7.69364 12.0012 7.68111 11.977C7.6686 11.9527 7.65058 11.9325 7.62889 11.9185C7.60719 11.9045 7.58258 11.8971 7.55751 11.8971H6.62898C6.58878 11.897 6.54928 11.9089 6.51452 11.9314C6.47976 11.954 6.45098 11.9865 6.43113 12.0256L5.51974 13.7951C5.50224 13.8289 5.47709 13.857 5.44681 13.8765C5.41654 13.896 5.3822 13.9063 5.34725 13.9063C5.3123 13.9063 5.27796 13.896 5.24769 13.8765C5.21741 13.857 5.19226 13.8289 5.17476 13.7951L4.26908 12.0256C4.24918 11.9866 4.22039 11.9541 4.18564 11.9316C4.1509 11.909 4.11143 11.8971 4.07124 11.8971H3.1427C3.11764 11.8971 3.09303 11.9045 3.07133 11.9185C3.04963 11.9325 3.03162 11.9527 3.0191 11.977C3.00658 12.0012 2.99999 12.0287 3 12.0567C3.00001 12.0848 3.00661 12.1123 3.01914 12.1365L4.5455 15.1145C4.58374 15.1885 4.60387 15.2725 4.60387 15.3579C4.60387 15.4434 4.58374 15.5273 4.5455 15.6014L3.02057 18.5809C3.00804 18.6052 3.00144 18.6327 3.00143 18.6607C3.00142 18.6887 3.00801 18.7162 3.02053 18.7405C3.03305 18.7647 3.05106 18.7849 3.07276 18.7989C3.09445 18.8129 3.11907 18.8203 3.14413 18.8204H4.07266C4.11298 18.8205 4.15259 18.8087 4.18748 18.7861C4.22236 18.7635 4.25126 18.731 4.27123 18.6919L5.17619 16.9255C5.19354 16.8915 5.21864 16.8632 5.24894 16.8436C5.27923 16.8239 5.31364 16.8135 5.34868 16.8135C5.38372 16.8135 5.41813 16.8239 5.44842 16.8436C5.47872 16.8632 5.50382 16.8915 5.52117 16.9255L6.42542 18.6919C6.44527 18.7309 6.47404 18.7634 6.5088 18.786C6.54356 18.8086 6.58306 18.8204 6.62327 18.8204H7.5518C7.57686 18.8203 7.60148 18.8129 7.62317 18.7989C7.64487 18.7849 7.66288 18.7647 7.6754 18.7405C7.68792 18.7162 7.69451 18.6887 7.6945 18.6607C7.6945 18.6327 7.6879 18.6052 7.67536 18.5809L6.154 15.603C6.1159 15.5289 6.09585 15.4449 6.09585 15.3595C6.09585 15.2741 6.1159 15.1901 6.154 15.1161L7.68108 12.1365ZM11.3988 15.3595C11.3988 15.4449 11.4187 15.5288 11.4566 15.603L12.978 18.5809C12.9905 18.6052 12.9971 18.6327 12.9971 18.6607C12.9971 18.6887 12.9906 18.7162 12.978 18.7405C12.9655 18.7647 12.9475 18.7849 12.9258 18.7989C12.9041 18.8129 12.8795 18.8203 12.8544 18.8204H11.9259C11.8857 18.8203 11.8462 18.8084 11.8115 18.7859C11.7768 18.7633 11.748 18.7309 11.7281 18.6918L10.8238 16.9255C10.8065 16.8915 10.7814 16.8632 10.7511 16.8436C10.7208 16.8239 10.6864 16.8135 10.6513 16.8135C10.6163 16.8135 10.5819 16.8239 10.5516 16.8436C10.5213 16.8632 10.4962 16.8915 10.4788 16.9255L9.57387 18.6918C9.55396 18.7309 9.52517 18.7633 9.49043 18.7859C9.45568 18.8084 9.41621 18.8203 9.37602 18.8204H8.44749C8.42243 18.8203 8.39781 18.8129 8.37611 18.7989C8.35442 18.7849 8.33641 18.7647 8.32389 18.7405C8.31137 18.7162 8.30478 18.6887 8.30478 18.6607C8.30479 18.6327 8.31139 18.6052 8.32392 18.5809L9.84886 15.603C9.88675 15.5288 9.90668 15.4449 9.90668 15.3595C9.90668 15.2741 9.88675 15.1902 9.84886 15.1161L8.32392 12.1365C8.31148 12.1124 8.30488 12.0851 8.30477 12.0573C8.30467 12.0295 8.31107 12.0022 8.32334 11.978C8.33561 11.9538 8.35332 11.9336 8.37472 11.9194C8.39612 11.9052 8.42046 11.8975 8.44535 11.8971H9.37388C9.41407 11.8971 9.45354 11.909 9.48829 11.9316C9.52303 11.9541 9.55182 11.9866 9.57173 12.0256L10.4788 13.7951C10.4963 13.8289 10.5215 13.857 10.5518 13.8765C10.582 13.896 10.6164 13.9063 10.6513 13.9063C10.6863 13.9063 10.7206 13.896 10.7509 13.8765C10.7812 13.857 10.8063 13.8289 10.8238 13.7951L11.7309 12.0256C11.7508 11.9866 11.7796 11.9541 11.8144 11.9316C11.8491 11.909 11.8886 11.8971 11.9288 11.8971H12.8573C12.8824 11.8971 12.907 11.9045 12.9287 11.9185C12.9504 11.9325 12.9684 11.9527 12.9809 11.977C12.9934 12.0012 13 12.0287 13 12.0567C13 12.0848 12.9934 12.1123 12.9809 12.1365L11.4566 15.1161C11.4187 15.1902 11.3988 15.2741 11.3988 15.3595Z" fill="#9FA2B4"/>
</svg>
