<svg width="19" height="5" viewBox="0 0 19 5" fill="none" xmlns="http://www.w3.org/2000/svg">
<path fill-rule="evenodd" clip-rule="evenodd" d="M4.5 2.5C4.5 3.60457 3.60457 4.5 2.5 4.5C1.39543 4.5 0.5 3.60457 0.5 2.5C0.5 1.39543 1.39543 0.5 2.5 0.5C3.60457 0.5 4.5 1.39543 4.5 2.5ZM11.5 2.5C11.5 3.60457 10.6046 4.5 9.5 4.5C8.39543 4.5 7.5 3.60457 7.5 2.5C7.5 1.39543 8.39543 0.5 9.5 0.5C10.6046 0.5 11.5 1.39543 11.5 2.5ZM16.5 4.5C17.6046 4.5 18.5 3.60457 18.5 2.5C18.5 1.39543 17.6046 0.5 16.5 0.5C15.3954 0.5 14.5 1.39543 14.5 2.5C14.5 3.60457 15.3954 4.5 16.5 4.5Z" fill="#258AFF"/>
</svg>
