<svg width="18" height="19" viewBox="0 0 18 19" fill="none" xmlns="http://www.w3.org/2000/svg">
<path d="M4 4.15563V3.68896C4 2.5844 4.89543 1.68896 6 1.68896H14.1333C15.2379 1.68896 16.1333 2.5844 16.1333 3.68896V15.3112C16.1333 16.4158 15.2379 17.3112 14.1333 17.3112H5.64444C4.73624 17.3112 4 16.5749 4 15.6667V15.6667" stroke="#258AFF" stroke-width="2" stroke-linecap="round" stroke-linejoin="round"/>
<path fill-rule="evenodd" clip-rule="evenodd" d="M5.1332 7.62207C5.1332 7.06979 4.68549 6.62207 4.1332 6.62207C3.58092 6.62207 3.1332 7.06979 3.1332 7.62207V9.08874L1.5332 9.08874C0.980918 9.08874 0.533203 9.53645 0.533203 10.0887C0.533203 10.641 0.980919 11.0887 1.5332 11.0887H3.1332V12.1998C3.1332 12.7521 3.58092 13.1998 4.1332 13.1998C4.68549 13.1998 5.1332 12.7521 5.1332 12.1998V11.0887H6.46654C7.01882 11.0887 7.46654 10.641 7.46654 10.0887C7.46654 9.53645 7.01882 9.08874 6.46654 9.08874L5.1332 9.08874V7.62207Z" fill="#258AFF"/>
</svg>
