<svg width="16" height="13" viewBox="0 0 16 13" fill="none" xmlns="http://www.w3.org/2000/svg">
<path fill-rule="evenodd" clip-rule="evenodd" d="M15.5375 5.746L9.91252 0.433496C9.71002 0.231621 9.42877 0.114746 9.11377 0.114746C8.49502 0.114746 7.98877 0.592871 7.98877 1.17725C7.98877 1.47475 8.11252 1.74037 8.31502 1.93162L12.0163 5.42725H1.23877C0.620019 5.42725 0.11377 5.90537 0.11377 6.48975C0.11377 7.07412 0.620019 7.55225 1.23877 7.55225H12.0275L8.32627 11.0479C8.12377 11.2391 8.00002 11.5047 8.00002 11.8022C8.00002 12.3866 8.50627 12.8647 9.12502 12.8647C9.44002 12.8647 9.72127 12.7479 9.92377 12.5566L15.5488 7.24412C15.7513 7.05287 15.875 6.78725 15.875 6.48975C15.875 6.19225 15.74 5.93725 15.5375 5.746Z" fill="#258AFF"/>
</svg>
