<svg width="26" height="30" viewBox="0 0 26 30" fill="none" xmlns="http://www.w3.org/2000/svg">
<path opacity="0.3" d="M16.7714 27H18.1667C21.3883 27 24 24.3883 24 21.1667V7.83333C24 4.61167 21.3883 2 18.1667 2H7.83333C4.61167 2 2 4.61167 2 7.83333V21.1667C2 24.3883 4.61167 27 7.83333 27H8.6" stroke="#9FA2B4" stroke-width="2.38"/>
<path fill-rule="evenodd" clip-rule="evenodd" d="M8.39643 20.9823C7.81065 20.3965 7.81065 19.4467 8.39643 18.8609L11.6681 15.5892C11.976 15.2814 12.3844 15.1353 12.7876 15.151C13.1909 15.1353 13.5992 15.2814 13.9071 15.5892L17.1788 18.8609C17.7646 19.4467 17.7646 20.3965 17.1788 20.9823C16.593 21.5681 15.6433 21.5681 15.0575 20.9823L14.5001 20.4248L14.5001 27.9998C14.5001 28.8282 13.8285 29.4998 13.0001 29.4998C12.1716 29.4998 11.5001 28.8282 11.5001 27.9998L11.5001 20L10.5178 20.9823C9.93197 21.5681 8.98222 21.5681 8.39643 20.9823Z" fill="#2EA7F0"/>
</svg>
