<svg width="45" height="45" viewBox="0 0 45 45" fill="none" xmlns="http://www.w3.org/2000/svg">
<circle cx="22.5" cy="22.5" r="22" stroke="#258AFF" stroke-opacity="0.2"/>
<path fill-rule="evenodd" clip-rule="evenodd" d="M17.5 22.5C17.5 23.6046 16.6046 24.5 15.5 24.5C14.3954 24.5 13.5 23.6046 13.5 22.5C13.5 21.3954 14.3954 20.5 15.5 20.5C16.6046 20.5 17.5 21.3954 17.5 22.5ZM24.5 22.5C24.5 23.6046 23.6046 24.5 22.5 24.5C21.3954 24.5 20.5 23.6046 20.5 22.5C20.5 21.3954 21.3954 20.5 22.5 20.5C23.6046 20.5 24.5 21.3954 24.5 22.5ZM29.5 24.5C30.6046 24.5 31.5 23.6046 31.5 22.5C31.5 21.3954 30.6046 20.5 29.5 20.5C28.3954 20.5 27.5 21.3954 27.5 22.5C27.5 23.6046 28.3954 24.5 29.5 24.5Z" fill="#258AFF"/>
</svg>
