<svg width="18" height="18" viewBox="0 0 18 18" fill="none" xmlns="http://www.w3.org/2000/svg">
<path d="M13.7963 7.02366L15.6642 5.10236C16.4342 4.31039 16.4342 3.02635 15.6642 2.23438L15.1505 1.70596C14.3805 0.913992 13.1321 0.914025 12.3622 1.706C11.7192 2.36737 11.1083 2.99563 10.5196 3.60118" stroke="#258AFF" stroke-width="2" stroke-linecap="round" stroke-linejoin="round"/>
<path d="M11.7078 3.51152C11.3228 3.11554 10.6986 3.11554 10.3137 3.51152L2.99665 11.0376C2.90277 11.1342 2.82882 11.2492 2.77924 11.3759L1.2967 15.1635C1.14912 15.5406 1.23469 15.9718 1.51411 16.2592C1.79353 16.5466 2.2128 16.6346 2.57936 16.4828L6.26178 14.9579C6.38494 14.907 6.49681 14.8309 6.59069 14.7343L13.9077 7.20825C14.2927 6.81227 14.2927 6.17025 13.9077 5.77426L11.7078 3.51152Z" stroke="#258AFF" stroke-width="2" stroke-linecap="round" stroke-linejoin="round"/>
</svg>
