<svg width="16" height="17" viewBox="0 0 16 17" fill="none" xmlns="http://www.w3.org/2000/svg">
<path fill-rule="evenodd" clip-rule="evenodd" d="M8.01352 1.95729C7.6229 1.56687 7.62273 0.933705 8.01315 0.543079C8.40358 0.152452 9.03674 0.152286 9.42737 0.542708L14.8827 5.99519C15.2733 6.38561 15.2735 7.01878 14.8831 7.4094C14.8518 7.44065 14.8191 7.4694 14.785 7.49565L9.4276 12.8529C9.03707 13.2434 8.4039 13.2434 8.01338 12.8529C7.62286 12.4624 7.62287 11.8292 8.0134 11.4387L12.7554 6.69673L8.01352 1.95729Z" fill="#010101"/>
<path d="M1.53467 15.75L1.53467 11.75C1.53467 8.98858 3.77324 6.75 6.53467 6.75L12.5347 6.75" stroke="#010101" stroke-width="2" stroke-linecap="round"/>
</svg>
