<svg width="40" height="41" viewBox="0 0 40 41" fill="none" xmlns="http://www.w3.org/2000/svg">
<mask id="path-1-inside-1_2696_112793" fill="white">
<path fill-rule="evenodd" clip-rule="evenodd" d="M3 19.6504V19.1798V5.41505C3 3.20591 4.79086 1.41504 7 1.41504L28.1832 1.41504C29.8326 1.41504 31.4092 2.09402 32.5425 3.29238L37.3594 8.38583C38.413 9.49992 39.0001 10.9751 39.0001 12.5085V19.1798V19.6504V33.4151C39.0001 35.6243 37.2093 37.4151 35.0001 37.4151H13.8169C12.1676 37.4151 10.5909 36.7362 9.45761 35.5378L4.64068 30.4443C3.58708 29.3303 3 27.8551 3 26.3217V19.6504Z"/>
</mask>
<path d="M7 1.41504V2.41504V1.41504ZM28.1832 1.41504V0.415039V1.41504ZM32.5425 3.29238L33.2691 2.60527V2.60527L32.5425 3.29238ZM37.3594 8.38583L36.6329 9.07294L37.3594 8.38583ZM9.45761 35.5378L8.73106 36.2249H8.73106L9.45761 35.5378ZM4.64068 30.4443L3.91412 31.1315L3.91413 31.1315L4.64068 30.4443ZM2 19.1798V19.6504H4V19.1798H2ZM2 5.41505V19.1798H4V5.41505H2ZM7 0.415041C4.23857 0.415041 2 2.65362 2 5.41505H4C4 3.75819 5.34314 2.41504 7 2.41504V0.415041ZM28.1832 0.415039L7 0.415041V2.41504L28.1832 2.41504V0.415039ZM33.2691 2.60527C31.9469 1.20718 30.1075 0.415039 28.1832 0.415039V2.41504C29.5577 2.41504 30.8715 2.98086 31.816 3.97949L33.2691 2.60527ZM38.086 7.69872L33.2691 2.60527L31.816 3.97949L36.6329 9.07294L38.086 7.69872ZM40.0001 12.5085C40.0001 10.7195 39.3152 8.99849 38.086 7.69872L36.6329 9.07294C37.5109 10.0013 38.0001 11.2307 38.0001 12.5085H40.0001ZM40.0001 19.1798V12.5085H38.0001V19.1798H40.0001ZM40.0001 19.6504V19.1798H38.0001V19.6504H40.0001ZM40.0001 33.4151V19.6504H38.0001V33.4151H40.0001ZM35.0001 38.4151C37.7615 38.4151 40.0001 36.1766 40.0001 33.4151H38.0001C38.0001 35.072 36.657 36.4151 35.0001 36.4151V38.4151ZM13.8169 38.4151H35.0001V36.4151H13.8169V38.4151ZM8.73106 36.2249C10.0532 37.623 11.8927 38.4151 13.8169 38.4151V36.4151C12.4425 36.4151 11.1286 35.8493 10.1842 34.8507L8.73106 36.2249ZM3.91413 31.1315L8.73106 36.2249L10.1842 34.8507L5.36723 29.7572L3.91413 31.1315ZM2 26.3217C2 28.1106 2.68492 29.8317 3.91412 31.1315L5.36723 29.7572C4.48923 28.8288 4 27.5995 4 26.3217H2ZM2 19.6504V26.3217H4V19.6504H2Z" fill="#A09367" mask="url(#path-1-inside-1_2696_112793)"/>
<path fill-rule="evenodd" clip-rule="evenodd" d="M38 13.0248V19.415V33.415C38 35.0719 36.6569 36.415 35 36.415H13.9289C12.5544 36.415 11.2405 35.8492 10.2961 34.8506L5.36723 29.6388C4.48923 28.7104 4 27.481 4 26.2032V19.415V5.41504C4 3.75819 5.34315 2.41504 7 2.41504L27.6405 2.41504C29.2899 2.41504 30.8665 3.09402 31.9998 4.29238L36.3593 8.90216C37.4129 10.0162 38 11.4914 38 13.0248Z" fill="#F7F8FC"/>
<mask id="path-4-inside-2_2696_112793" fill="white">
<path fill-rule="evenodd" clip-rule="evenodd" d="M6 22.415V16.415V6.41504C6 5.31047 6.89543 4.41504 8 4.41504H27.4923C28.5975 4.41504 29.6533 4.87225 30.4095 5.6782L34.9171 10.4828C35.6128 11.2243 36 12.2029 36 13.2197V16.4128C36 16.4135 36 16.4143 36 16.415V22.415V32.415C36 33.5196 35.1046 34.415 34 34.415H14.5077C13.4025 34.415 12.3467 33.9578 11.5905 33.1519L7.08286 28.3473C6.38719 27.6058 6 26.6272 6 25.6104V22.415Z"/>
</mask>
<path fill-rule="evenodd" clip-rule="evenodd" d="M6 22.415V16.415V6.41504C6 5.31047 6.89543 4.41504 8 4.41504H27.4923C28.5975 4.41504 29.6533 4.87225 30.4095 5.6782L34.9171 10.4828C35.6128 11.2243 36 12.2029 36 13.2197V16.4128C36 16.4135 36 16.4143 36 16.415V22.415V32.415C36 33.5196 35.1046 34.415 34 34.415H14.5077C13.4025 34.415 12.3467 33.9578 11.5905 33.1519L7.08286 28.3473C6.38719 27.6058 6 26.6272 6 25.6104V22.415Z" fill="white"/>
<path d="M30.4095 5.6782L31.1388 4.99399V4.99399L30.4095 5.6782ZM34.9171 10.4828L34.1879 11.167V11.167L34.9171 10.4828ZM11.5905 33.1519L10.8612 33.8361H10.8612L11.5905 33.1519ZM7.08286 28.3473L7.81214 27.663H7.81214L7.08286 28.3473ZM5 16.415V22.415H7V16.415H5ZM5 6.41504V16.415H7V6.41504H5ZM8 3.41504C6.34314 3.41504 5 4.75819 5 6.41504H7C7 5.86275 7.44771 5.41504 8 5.41504V3.41504ZM27.4923 3.41504H8V5.41504H27.4923V3.41504ZM31.1388 4.99399C30.1936 3.98655 28.8737 3.41504 27.4923 3.41504V5.41504C28.3212 5.41504 29.1131 5.75795 29.6802 6.36241L31.1388 4.99399ZM35.6464 9.79861L31.1388 4.99399L29.6802 6.36241L34.1879 11.167L35.6464 9.79861ZM37 13.2197C37 11.9487 36.516 10.7255 35.6464 9.79861L34.1879 11.167C34.7096 11.7232 35 12.4571 35 13.2197H37ZM37 16.4128V13.2197H35V16.4128H37ZM37 16.415C37 16.4139 37 16.4129 37 16.4126C37 16.4122 37 16.4124 37 16.4128H35C35 16.4139 35 16.4149 35 16.4152C35 16.4157 35 16.4154 35 16.415H37ZM37 22.415V16.415H35V22.415H37ZM37 32.415V22.415H35V32.415H37ZM34 35.415C35.6569 35.415 37 34.0719 37 32.415H35C35 32.9673 34.5523 33.415 34 33.415V35.415ZM14.5077 35.415H34V33.415H14.5077V35.415ZM10.8612 33.8361C11.8064 34.8435 13.1263 35.415 14.5077 35.415V33.415C13.6788 33.415 12.8869 33.0721 12.3198 32.4677L10.8612 33.8361ZM6.35357 29.0315L10.8612 33.8361L12.3198 32.4677L7.81214 27.663L6.35357 29.0315ZM5 25.6104C5 26.8813 5.48399 28.1046 6.35358 29.0315L7.81214 27.663C7.29039 27.1069 7 26.373 7 25.6104H5ZM5 22.415V25.6104H7V22.415H5Z" fill="#010101" mask="url(#path-4-inside-2_2696_112793)"/>
<path d="M16.7215 20.6962C16.5689 20.1837 16.4162 19.4365 16.8331 18.9145L18.1406 23.4261C17.7941 22.9905 17.5358 22.4967 17.3792 21.971C16.9901 21.6034 16.8176 21.0207 16.7233 20.7021L16.7215 20.6962ZM16.7215 20.6962L16.7216 20.6962L16.7215 20.6962ZM23.4707 23.1124L23.3616 23.2492V23.4242V23.9874C23.3616 24.2106 23.5097 24.4588 23.7916 24.5165C24.731 24.7164 25.6356 25.0434 26.4783 25.4869C23.3662 28.171 18.634 28.171 15.5219 25.4869C16.364 25.0438 17.2703 24.7185 18.2105 24.5184C18.4925 24.4607 18.6406 24.2125 18.6406 23.9893V23.4261V23.2515L18.5319 23.1148C18.2246 22.7285 17.9964 22.2918 17.8584 21.8283L17.8201 21.6997L17.7226 21.6076C17.4449 21.3453 17.3019 20.8952 17.201 20.5543L17.2007 20.5535C17.1288 20.3119 17.0677 20.0486 17.0637 19.8008C17.0598 19.5598 17.11 19.3731 17.2183 19.2335L17.2301 19.2199L17.386 19.0405L17.3453 18.8064C17.3196 18.6584 17.3007 18.5233 17.2906 18.3888L17.2891 18.3687L17.2859 18.3487C17.1041 17.1923 17.4686 16.2469 18.1407 15.5823C18.8218 14.9086 19.8452 14.5 21.0001 14.5C22.1567 14.5 23.2142 14.9127 23.9037 15.635C24.58 16.3434 24.9463 17.3942 24.6561 18.7862L24.6087 19.0134L24.7517 19.1962L24.7693 19.2188L24.7707 19.2206C24.8874 19.3684 24.9396 19.5621 24.936 19.807C24.9324 20.0555 24.8714 20.3185 24.7993 20.5615L24.7984 20.5645C24.7017 20.8982 24.5557 21.3503 24.2749 21.6196L24.1799 21.7107L24.1421 21.8368C24.0043 22.2962 23.7763 22.7294 23.4707 23.1124Z" stroke="#010101"/>
<circle cx="21" cy="19" r="8.5" stroke="#010101"/>
</svg>
