<svg width="33" height="32" viewBox="0 0 33 32" fill="none" xmlns="http://www.w3.org/2000/svg">
<path d="M20.8031 15.4361V18.1799L20.7295 18.1589C20.2459 18.0117 19.892 17.8295 19.6677 17.6122C19.4434 17.3949 19.3313 17.1251 19.3313 16.8027C19.3313 16.4733 19.4609 16.1825 19.7203 15.9302C19.9866 15.6779 20.3475 15.5132 20.8031 15.4361Z" fill="#07C531"/>
<path d="M21.8333 22.7214V19.7778L22.0646 19.8409C22.5902 19.981 22.9546 20.1668 23.1579 20.3981C23.3681 20.6293 23.4733 20.9167 23.4733 21.2601C23.4733 21.6385 23.3366 21.9609 23.0633 22.2273C22.797 22.4936 22.387 22.6583 21.8333 22.7214Z" fill="#07C531"/>
<path fill-rule="evenodd" clip-rule="evenodd" d="M10.7881 21.0882C14.8824 20.3901 17.9992 16.8248 17.9992 12.5316C17.9992 11.3145 17.7487 10.1559 17.2964 9.10454C18.555 8.58085 19.892 8.319 21.3077 8.319C22.7724 8.319 24.1531 8.59934 25.4497 9.16001C26.7462 9.72069 27.8886 10.4951 28.8768 11.4833C29.865 12.4715 30.6394 13.6139 31.2001 14.9104C31.7608 16.2 32.0411 17.5772 32.0411 19.0419C32.0411 20.5067 31.7608 21.8873 31.2001 23.1839C30.6394 24.4735 29.865 25.6123 28.8768 26.6005C27.8886 27.5887 26.7462 28.3631 25.4497 28.9238C24.1601 29.4845 22.7829 29.7648 21.3182 29.7648C19.8534 29.7648 18.4727 29.4845 17.1762 28.9238C15.8866 28.3631 14.7478 27.5887 13.7596 26.6005C12.7714 25.6123 11.9969 24.4735 11.4363 23.1839C11.1441 22.5082 10.928 21.8096 10.7881 21.0882ZM20.9502 25.0972C21.0484 25.1883 21.171 25.2339 21.3182 25.2339C21.4654 25.2339 21.588 25.1883 21.6861 25.0972C21.7842 24.9991 21.8333 24.8729 21.8333 24.7188V23.9618C22.6743 23.8777 23.3822 23.6009 23.9569 23.1313C24.5315 22.6548 24.8189 22.0065 24.8189 21.1865C24.8189 20.4506 24.5806 19.8584 24.104 19.4099C23.6275 18.9613 22.9196 18.6529 21.9805 18.4847L21.8333 18.4532V15.4361C22.2188 15.5062 22.5411 15.6533 22.8005 15.8776C23.0668 16.1019 23.256 16.3962 23.3681 16.7607C23.4873 17.1181 23.7081 17.2968 24.0304 17.2968C24.2197 17.2968 24.3739 17.2372 24.493 17.1181C24.6121 16.999 24.6717 16.8448 24.6717 16.6555C24.6717 16.5995 24.6647 16.5434 24.6507 16.4873C24.6437 16.4313 24.6332 16.3752 24.6192 16.3191C24.472 15.7374 24.1426 15.2574 23.631 14.8789C23.1264 14.4934 22.5271 14.2622 21.8333 14.1851V13.4387C21.8333 13.2845 21.7842 13.1618 21.6861 13.0707C21.588 12.9726 21.4654 12.9235 21.3182 12.9235C21.171 12.9235 21.0484 12.9726 20.9502 13.0707C20.8521 13.1618 20.8031 13.2845 20.8031 13.4387V14.1851C19.9831 14.2762 19.3068 14.5635 18.7741 15.0471C18.2485 15.5237 17.9857 16.1334 17.9857 16.8763C17.9857 17.5631 18.2169 18.1203 18.6795 18.5478C19.1421 18.9683 19.8254 19.2872 20.7295 19.5045L20.8031 19.5255V22.7214C20.3195 22.6513 19.934 22.4901 19.6467 22.2378C19.3663 21.9855 19.1806 21.6806 19.0895 21.3232C19.0264 21.1339 18.9388 20.9973 18.8267 20.9132C18.7145 20.8221 18.5779 20.7765 18.4167 20.7765C18.2345 20.7765 18.0838 20.8361 17.9646 20.9552C17.8455 21.0744 17.7859 21.2286 17.7859 21.4178C17.7859 21.4738 17.7894 21.5299 17.7964 21.586L17.8385 21.7542C17.9927 22.3849 18.3431 22.8896 18.8897 23.268C19.4364 23.6465 20.0742 23.8707 20.8031 23.9408V24.7188C20.8031 24.8729 20.8521 24.9991 20.9502 25.0972Z" fill="#07C531"/>
<path d="M8.95989 19.5525C9.94016 19.5525 10.8681 19.3616 11.7437 18.9796C12.6193 18.5976 13.3902 18.0725 14.0564 17.404C14.7321 16.7356 15.2603 15.9621 15.641 15.0836C16.0217 14.2051 16.212 13.2694 16.212 12.2763C16.212 11.2736 16.0217 10.3378 15.641 9.46889C15.2698 8.59039 14.7464 7.81693 14.0706 7.1485C13.4044 6.47053 12.6335 5.94534 11.758 5.57293C10.8824 5.19098 9.94968 5 8.95989 5C7.9701 5 7.03741 5.19098 6.16182 5.57293C5.28623 5.94534 4.51534 6.47053 3.84913 7.1485C3.18292 7.81693 2.65947 8.59039 2.27878 9.46889C1.8981 10.3378 1.70775 11.2736 1.70775 12.2763H3.47796C3.47796 11.2736 3.72541 10.3569 4.2203 9.52618C4.72472 8.68588 5.39092 8.01745 6.21892 7.52091C7.04692 7.02437 7.96058 6.7761 8.95989 6.7761C9.9592 6.7761 10.8729 7.02437 11.7009 7.52091C12.5384 8.01745 13.2046 8.68588 13.6995 9.52618C14.1944 10.3569 14.4418 11.2736 14.4418 12.2763C14.4418 13.2789 14.1896 14.1956 13.6852 15.0263C13.1903 15.8571 12.5241 16.5208 11.6866 17.0173C10.8586 17.5234 9.94968 17.7764 8.95989 17.7764C8.05575 17.7764 7.22775 17.5711 6.47589 17.1605C5.73354 16.7499 5.10541 16.2295 4.59147 15.5993C4.42968 15.3892 4.23458 15.2555 4.00616 15.1982C3.78727 15.1409 3.57313 15.1791 3.36375 15.3128C3.15437 15.456 3.03065 15.6566 2.99258 15.9144C2.94499 16.1818 3.01161 16.43 3.19244 16.6592C3.87768 17.5759 4.72472 18.2873 5.73354 18.7934C6.75189 19.2995 7.82734 19.5525 8.95989 19.5525ZM2.10747 13.9521C2.29782 14.1813 2.5072 14.2959 2.73561 14.2959C2.95451 14.2959 3.16389 14.1813 3.36375 13.9521L5.23389 11.646C5.4623 11.3691 5.50989 11.1018 5.37665 10.8439C5.24341 10.5766 4.9912 10.4429 4.62003 10.4429H0.836923C0.46575 10.4429 0.213543 10.5766 0.0803017 10.8439C-0.0624569 11.1018 -0.0148707 11.3691 0.22306 11.646L2.10747 13.9521Z" fill="#9FA2B4"/>
<path d="M10.93 15.8141C11.1108 15.6805 11.2107 15.5086 11.2298 15.2985C11.2583 15.0789 11.2012 14.8688 11.0584 14.6683L9.4881 12.4022V9.15377C9.4881 8.93415 9.41196 8.75272 9.25968 8.60949C9.10741 8.4567 8.91706 8.38031 8.68865 8.38031C8.46975 8.38031 8.27941 8.4567 8.11761 8.60949C7.96534 8.75272 7.8892 8.93415 7.8892 9.15377V12.8062C7.8892 13.0354 7.96058 13.2407 8.10334 13.4221L9.77361 15.6279C9.91637 15.8189 10.0972 15.9335 10.3161 15.9717C10.535 16.0099 10.7396 15.9574 10.93 15.8141Z" fill="#9FA2B4"/>
</svg>
