<svg width="24" height="25" viewBox="0 0 24 25" fill="none" xmlns="http://www.w3.org/2000/svg">
<path d="M7.00001 18.9189C6.44773 18.9189 6.00001 19.3666 6.00001 19.9189C6 20.4712 6.44772 20.9189 7 20.9189L18.0003 20.9189C18.5525 20.919 19.0003 20.4712 19.0003 19.919C19.0003 19.3667 18.5526 18.9189 18.0003 18.9189L7.00001 18.9189Z" fill="#258AFF"/>
<path d="M12.6043 16.5083C13.1565 16.5083 13.6043 16.0606 13.6043 15.5083L13.6043 7.34063L17.2929 11.0293C17.6834 11.4199 18.3166 11.4199 18.7071 11.0293C19.0976 10.6388 19.0976 10.0057 18.7071 9.61513L13.3498 4.25776C13.3236 4.22367 13.2948 4.19088 13.2636 4.15965C12.873 3.76923 12.2398 3.7694 11.8494 4.16002L6.39691 9.61536C6.00648 10.006 6.00665 10.6391 6.39728 11.0296C6.7879 11.42 7.42107 11.4198 7.81149 11.0292L11.6043 7.23445L11.6043 15.5083C11.6043 16.0606 12.052 16.5083 12.6043 16.5083Z" fill="#258AFF"/>
</svg>
