<svg width="23" height="22" viewBox="0 0 23 22" fill="none" xmlns="http://www.w3.org/2000/svg">
<path d="M14.974 9.70614L12.7823 7.51443C12.5735 7.3057 12.446 7.00419 12.446 6.70269V0.289909C12.446 0.12756 12.3184 0 12.156 0H10.8207C10.6584 0 10.5308 0.12756 10.5308 0.289909V6.71428C10.5308 7.01579 10.4149 7.3057 10.1945 7.52603L8.00282 9.71774C7.79408 9.92647 7.49258 10.054 7.19108 10.054H0.789909C0.62756 10.054 0.5 10.1816 0.5 10.3439V11.6793C0.5 11.8416 0.62756 11.9692 0.789909 11.9692H7.19108C7.49258 11.9692 7.78249 12.0851 8.00282 12.3055L10.1945 14.4972C10.4033 14.7059 10.5308 15.0074 10.5308 15.3089V21.7101C10.5308 21.8724 10.6584 22 10.8207 22H12.156C12.3184 22 12.446 21.8724 12.446 21.7101V15.3089C12.446 15.0074 12.5619 14.7175 12.7823 14.4972L14.974 12.3055C15.1827 12.0967 15.4842 11.9692 15.7857 11.9692H22.2449C22.4072 11.9692 22.5348 11.8416 22.5348 11.6793V10.3323C22.5348 10.17 22.4072 10.0424 22.2449 10.0424H15.7857C15.4842 10.0424 15.1943 9.92647 14.974 9.70614Z" fill="#9FA2B4"/>
</svg>
