<svg width="22" height="25" viewBox="0 0 22 25" fill="none" xmlns="http://www.w3.org/2000/svg">
<path d="M15.2219 8.11081C15.4886 7.97403 15.8093 7.99813 16.0524 8.1732C17.2417 9.02864 18.6136 9.54303 20.0595 9.6815V7.49855C17.3496 7.14072 15.1977 4.98888 14.8399 2.27895H12.6189V16.9196C12.6189 19.2286 10.7406 21.1071 8.43134 21.1071C6.12226 21.1071 4.24394 19.2286 4.24394 16.9196C4.24394 14.8832 5.7044 13.1822 7.63286 12.8083V10.6131C4.50371 11.007 2.07515 13.6852 2.07515 16.9196C2.07515 20.4243 4.92662 23.2757 8.43134 23.2757C11.936 23.2757 14.7877 20.4243 14.7877 16.9196V8.82135C14.7877 8.52179 14.9553 8.24728 15.2219 8.11081ZM15.2219 8.11081C15.2219 8.11081 15.2219 8.1108 15.2219 8.11079L15.2654 8.19568L15.2219 8.11083C15.2219 8.11083 15.2219 8.11082 15.2219 8.11081ZM20.858 5.95378C18.3915 5.95378 16.3847 3.94697 16.3847 1.48047C16.3847 1.03942 16.027 0.68199 15.5862 0.68199H11.8204C11.3794 0.68199 11.022 1.03944 11.022 1.48047V16.9196C11.022 18.3478 9.85982 19.51 8.43134 19.51C7.00304 19.51 5.8409 18.3479 5.8409 16.9196C5.8409 15.4911 7.00305 14.3289 8.43134 14.3289C8.87236 14.3289 9.22981 13.9715 9.22981 13.5305V9.76471C9.22981 9.32388 8.87238 8.96623 8.43134 8.96623C4.04585 8.96623 0.478193 12.5341 0.478193 16.9196C0.478193 21.305 4.04585 24.8727 8.43134 24.8727C12.8168 24.8727 16.3847 21.305 16.3847 16.9196V10.243C17.7615 10.9487 19.284 11.3165 20.858 11.3165C21.299 11.3165 21.6565 10.959 21.6565 10.518V6.75226C21.6565 6.31143 21.299 5.95378 20.858 5.95378Z" fill="#9FA2B4" stroke="#757470" stroke-width="0.190708"/>
</svg>
