<svg width="18" height="19" viewBox="0 0 18 19" fill="none" xmlns="http://www.w3.org/2000/svg">
<circle r="8.25" transform="matrix(-1 0 0 1 9 9.04688)" stroke="#A0A2AD" stroke-width="1.5"/>
<path d="M2.85194 14.2969C3.91494 12.8192 4.54102 11.0062 4.54102 9.04688C4.54102 7.0876 3.91494 5.27455 2.85194 3.79688" stroke="#A0A2AD" stroke-width="1.5"/>
<path d="M14.9997 3.04688C13.5746 4.63914 12.708 6.74181 12.708 9.04687C12.708 11.3519 13.5746 13.4546 14.9997 15.0469" stroke="#A0A2AD" stroke-width="1.5"/>
<path d="M9.58983 16.9227C8.7215 14.4596 8.24902 11.809 8.24902 9.04774C8.24902 6.21816 8.74518 3.50476 9.65502 0.990234" stroke="#A0A2AD" stroke-width="1.5"/>
<path d="M16.8741 8.17722C14.2022 9.22277 11.2929 9.79687 8.24912 9.79687C5.72604 9.79687 3.29533 9.40239 1.01562 8.67188" stroke="#A0A2AD" stroke-width="1.5"/>
</svg>
