<svg width="20" height="19" viewBox="0 0 20 19" fill="none" xmlns="http://www.w3.org/2000/svg">
<mask id="path-1-inside-1_2010_3390" fill="white">
<path fill-rule="evenodd" clip-rule="evenodd" d="M3.93141 2.07933C4.01265 2.12623 4.06164 2.21286 4.06462 2.30662C4.1379 4.61329 6.33544 7.50875 9.75028 9.48031C13.1651 11.4519 16.7714 11.9073 18.8057 10.8174C18.8884 10.7731 18.9879 10.7722 19.0692 10.8191C19.1936 10.891 19.2363 11.0501 19.1644 11.1746L16.2945 16.1454C14.9138 18.5368 10.3049 18.4608 6.00028 15.9755C1.69565 13.4902 -0.674657 9.53683 0.706055 7.14537L3.57595 2.17457C3.6478 2.05011 3.80695 2.00747 3.93141 2.07933Z"/>
</mask>
<path d="M18.8057 10.8174L19.5141 12.1396L18.8057 10.8174ZM2.56538 2.35425C2.6157 3.93815 3.37379 5.53944 4.47328 6.94381C5.58954 8.3696 7.14497 9.70818 9.00028 10.7793L10.5003 8.18127C8.94075 7.28087 7.68999 6.18594 6.83545 5.09445C5.96414 3.98153 5.58683 2.98176 5.56386 2.25898L2.56538 2.35425ZM9.00028 10.7793C10.8556 11.8505 12.7926 12.5283 14.5855 12.7821C16.3514 13.0321 18.1172 12.888 19.5141 12.1396L18.0973 9.49519C17.4599 9.83669 16.4054 10.0098 15.006 9.81169C13.6334 9.61739 12.0598 9.08167 10.5003 8.18127L9.00028 10.7793ZM17.5935 16.8954L20.4634 11.9246L17.8654 10.4246L14.9955 15.3954L17.5935 16.8954ZM5.25028 17.2745C7.58086 18.6201 10.0564 19.3533 12.2191 19.389C14.3237 19.4237 16.5071 18.7771 17.5935 16.8954L14.9955 15.3954C14.7012 15.9051 13.8898 16.4162 12.2686 16.3894C10.7056 16.3636 8.72434 15.8162 6.75028 14.6765L5.25028 17.2745ZM-0.592983 6.39537C-1.67939 8.27709 -1.14769 10.4913 -0.0653225 12.2966C1.04694 14.1517 2.9197 15.929 5.25028 17.2745L6.75028 14.6765C4.77623 13.5367 3.31152 12.0947 2.50765 10.7539C1.67389 9.36331 1.71079 8.40512 2.00509 7.89537L-0.592983 6.39537ZM2.27691 1.42457L-0.592983 6.39537L2.00509 7.89537L4.87499 2.92457L2.27691 1.42457ZM18.3192 12.1181C17.7262 11.7758 17.523 11.0176 17.8654 10.4246L20.4634 11.9246C20.9495 11.0827 20.6611 10.0061 19.8192 9.52007L18.3192 12.1181ZM4.87499 2.92457C4.53263 3.51755 3.77439 3.72072 3.18141 3.37836L4.68141 0.780288C3.83951 0.294218 2.76298 0.582672 2.27691 1.42457L4.87499 2.92457ZM19.5141 12.1396C19.1671 12.3255 18.7139 12.346 18.3192 12.1181L19.8192 9.52007C19.262 9.19837 18.6097 9.22068 18.0973 9.49519L19.5141 12.1396ZM5.56386 2.25898C5.5454 1.678 5.23861 1.10199 4.68141 0.780288L3.18141 3.37836C2.78668 3.15047 2.57788 2.74771 2.56538 2.35425L5.56386 2.25898Z" fill="#A0A2AD" mask="url(#path-1-inside-1_2010_3390)"/>
<path d="M4.35501 2.32427C3.86268 3.17701 3.96793 4.44921 4.86384 5.94348C5.74481 7.41283 7.31153 8.93869 9.37472 10.1299C11.4379 11.3211 13.5427 11.9149 15.2557 11.9432C16.9977 11.972 18.1521 11.427 18.6444 10.5743C19.1368 9.72153 19.0315 8.44933 18.1356 6.95505C17.2546 5.4857 15.6879 3.95984 13.6247 2.76866C11.5615 1.57748 9.45673 0.98359 7.74376 0.955323C6.00172 0.926576 4.84734 1.47153 4.35501 2.32427Z" stroke="#A0A2AD" stroke-width="1.5"/>
</svg>
