<svg width="18" height="19" viewBox="0 0 18 19" fill="none" xmlns="http://www.w3.org/2000/svg">
<circle r="8.25" transform="matrix(-1 0 0 1 9 9.04688)" stroke="#A0A2AD" stroke-width="1.5"/>
<path d="M8.70611 5.87843C8.88135 5.75111 9.11865 5.75111 9.29389 5.87843L11.9225 7.78827C12.0978 7.91559 12.1711 8.14127 12.1042 8.34728L11.1001 11.4375C11.0332 11.6435 10.8412 11.7829 10.6246 11.7829L7.3754 11.7829C7.15879 11.7829 6.96681 11.6435 6.89987 11.4375L5.89582 8.34728C5.82888 8.14127 5.90221 7.91559 6.07745 7.78826L8.70611 5.87843Z" stroke="#A0A2AD"/>
<line x1="7.4" y1="11.3469" x2="4.4" y2="15.3469" stroke="#A0A2AD"/>
<line y1="-0.5" x2="5" y2="-0.5" transform="matrix(0.6 0.8 0.8 -0.6 11 11.0469)" stroke="#A0A2AD"/>
<path d="M0.841886 6.3275L6 8.04688" stroke="#A0A2AD"/>
<path d="M16.8419 6.43291L12 8.04688" stroke="#A0A2AD"/>
<path d="M9 1.04687L9 6.04688" stroke="#A0A2AD"/>
</svg>
