
<svg width="264" height="357" viewBox="0 0 264 357" fill="none" xmlns="http://www.w3.org/2000/svg">
<path opacity="0.2" fill-rule="evenodd" clip-rule="evenodd" d="M254 2H10C5.58172 2 2 5.58172 2 9.99999V346.757C2 351.175 5.58173 354.757 10 354.757H254C258.418 354.757 262 351.175 262 346.757V10C262 5.58172 258.418 2 254 2ZM10 0C4.47715 0 0 4.47714 0 9.99999V346.757C0 352.28 4.47716 356.757 10 356.757H254C259.523 356.757 264 352.28 264 346.757V10C264 4.47715 259.523 0 254 0H10Z" fill="#61636E"/>
<path opacity="0.2" fill-rule="evenodd" clip-rule="evenodd" d="M251.864 9.13477H12.1348C10.4779 9.13477 9.13477 10.4779 9.13477 12.1348V344.621C9.13477 346.278 10.4779 347.621 12.1348 347.621H251.865C253.521 347.621 254.865 346.278 254.865 344.621V12.1348C254.865 10.4779 253.521 9.13477 251.864 9.13477ZM12.1348 7.13477C9.37334 7.13477 7.13477 9.37335 7.13477 12.1348V344.621C7.13477 347.383 9.37335 349.621 12.1348 349.621H251.865C254.626 349.621 256.865 347.383 256.865 344.621V12.1348C256.865 9.37334 254.626 7.13477 251.864 7.13477H12.1348Z" fill="#61636E"/>
<path opacity="0.2" fill-rule="evenodd" clip-rule="evenodd" d="M247.278 16H16.1818L28.7565 160.609C29.769 172.253 29.769 183.963 28.7565 195.607L16.1818 340.216H247.278L234.704 195.607C233.691 183.963 233.691 172.253 234.704 160.609L247.278 16ZM16.1818 14C15.0088 14 14.0877 15.0047 14.1893 16.1733L26.764 160.782C27.7665 172.311 27.7665 183.905 26.764 195.434L14.1893 340.043C14.0877 341.211 15.0089 342.216 16.1818 342.216H247.278C248.451 342.216 249.372 341.211 249.271 340.043L236.696 195.434C235.694 183.905 235.694 172.311 236.696 160.782L249.271 16.1733C249.372 15.0047 248.451 14 247.278 14H16.1818Z" fill="#61636E"/>
<path d="M122.175 178.556H126.865C127.013 178.556 127.154 178.496 127.259 178.393C127.363 178.288 127.422 178.147 127.422 177.999V173.226C127.422 173.078 127.363 172.937 127.259 172.833C127.154 172.728 127.013 172.669 126.865 172.669H122.175C122.101 172.669 122.029 172.685 121.96 172.712C121.892 172.741 121.831 172.783 121.78 172.836C121.728 172.889 121.687 172.951 121.66 173.02C121.632 173.089 121.618 173.161 121.62 173.235V177.999C121.62 178.147 121.679 178.288 121.783 178.393C121.886 178.498 122.027 178.556 122.175 178.556Z" fill="#B2B4BA"/>
<path fill-rule="evenodd" clip-rule="evenodd" d="M162.227 164.565L165.634 167.975C166.33 168.671 166.721 169.616 166.721 170.603V191.365C166.721 192.391 165.89 193.223 164.865 193.223H104.594C103.61 193.223 102.666 192.831 101.97 192.135L98.5626 188.725C97.867 188.029 97.4754 187.083 97.4754 186.098V165.335C97.4754 164.308 98.3067 163.477 99.332 163.477H159.602C160.586 163.477 161.531 163.868 162.227 164.565ZM118.74 171.815C118.582 171.98 118.494 172.2 118.496 172.428V178.883C118.496 179.111 118.583 179.331 118.743 179.496L120.562 181.373C120.644 181.457 120.742 181.524 120.85 181.571C120.959 181.616 121.075 181.64 121.192 181.641H127.841C127.959 181.641 128.076 181.617 128.184 181.571C128.294 181.524 128.392 181.457 128.474 181.373L130.293 179.496C130.451 179.331 130.541 179.111 130.541 178.883V172.43C130.542 172.201 130.453 171.981 130.293 171.816L128.474 169.939C128.394 169.853 128.294 169.786 128.186 169.74C128.078 169.695 127.961 169.671 127.842 169.671H121.191C121.072 169.67 120.955 169.694 120.847 169.74C120.739 169.785 120.641 169.853 120.559 169.938L118.74 171.815ZM115.861 186.841C115.966 186.738 116.024 186.597 116.024 186.449H116.023V170.223C116.023 170.077 115.964 169.936 115.859 169.831C115.756 169.726 115.616 169.668 115.468 169.668H113.493C113.419 169.668 113.347 169.683 113.28 169.711C113.213 169.738 113.151 169.78 113.099 169.831C113.048 169.883 113.007 169.945 112.979 170.012C112.95 170.079 112.936 170.153 112.936 170.225V178.805C112.936 178.903 112.904 178.998 112.844 179.075C112.783 179.152 112.699 179.207 112.605 179.233C112.51 179.259 112.411 179.254 112.32 179.216C112.229 179.178 112.153 179.113 112.103 179.029L106.856 169.988C106.8 169.891 106.719 169.811 106.623 169.756C106.527 169.699 106.417 169.67 106.305 169.67H104.168C104.023 169.67 103.882 169.728 103.777 169.833C103.672 169.936 103.614 170.077 103.614 170.225V186.451C103.614 186.597 103.672 186.738 103.777 186.843C103.88 186.947 104.021 187.006 104.168 187.006H106.144C106.291 187.006 106.432 186.947 106.537 186.843C106.642 186.738 106.7 186.597 106.7 186.449V177.887C106.702 177.789 106.734 177.695 106.795 177.617C106.855 177.54 106.939 177.485 107.033 177.459C107.128 177.435 107.227 177.44 107.318 177.478C107.409 177.516 107.485 177.581 107.535 177.666L112.759 186.686C112.814 186.782 112.895 186.863 112.993 186.918C113.091 186.975 113.201 187.004 113.312 187.004H115.47C115.616 187.004 115.756 186.946 115.861 186.841ZM129.991 187.004C130.297 187.004 130.546 186.757 130.546 186.449V184.555C130.546 184.249 130.298 184 129.991 184H119.052C118.747 184 118.498 184.247 118.498 184.555V186.449C118.498 186.755 118.745 187.004 119.052 187.004H129.991ZM145.344 186.408L141.089 178.95C140.983 178.764 140.926 178.554 140.933 178.339C140.933 178.125 140.99 177.915 141.096 177.729L145.366 170.268C145.4 170.208 145.419 170.139 145.419 170.068C145.419 169.998 145.4 169.929 145.366 169.869C145.332 169.809 145.28 169.757 145.22 169.723C145.16 169.688 145.091 169.67 145.021 169.67H142.424C142.312 169.67 142.202 169.699 142.104 169.756C142.007 169.812 141.926 169.893 141.871 169.991L139.322 174.422C139.272 174.508 139.202 174.579 139.118 174.627C139.034 174.675 138.937 174.701 138.839 174.701C138.742 174.701 138.645 174.675 138.561 174.627C138.475 174.577 138.405 174.506 138.357 174.422L135.824 169.991C135.767 169.893 135.688 169.812 135.59 169.756C135.494 169.699 135.382 169.67 135.271 169.67H132.674C132.603 169.67 132.535 169.688 132.474 169.723C132.414 169.757 132.363 169.809 132.328 169.869C132.294 169.929 132.275 169.998 132.275 170.068C132.275 170.139 132.294 170.208 132.328 170.268L136.596 177.726C136.703 177.911 136.76 178.121 136.76 178.336C136.76 178.551 136.703 178.761 136.596 178.946L132.332 186.408C132.298 186.468 132.279 186.537 132.279 186.607C132.279 186.678 132.298 186.746 132.332 186.806C132.366 186.867 132.418 186.918 132.478 186.953C132.538 186.987 132.607 187.006 132.677 187.006H135.274C135.387 187.006 135.497 186.977 135.595 186.92C135.691 186.863 135.774 186.782 135.829 186.684L138.359 182.26C138.407 182.176 138.477 182.105 138.561 182.056C138.645 182.006 138.742 181.98 138.839 181.98C138.937 181.98 139.034 182.006 139.118 182.056C139.202 182.104 139.272 182.174 139.32 182.26L141.849 186.684C141.905 186.782 141.984 186.863 142.082 186.92C142.178 186.977 142.29 187.006 142.402 187.006H144.998C145.069 187.006 145.138 186.987 145.198 186.953C145.258 186.918 145.309 186.867 145.344 186.806C145.378 186.746 145.397 186.678 145.397 186.607C145.397 186.537 145.378 186.468 145.344 186.408ZM160.172 186.408L155.918 178.95C155.812 178.764 155.757 178.554 155.762 178.338C155.762 178.123 155.817 177.913 155.923 177.727L160.186 170.266C160.221 170.206 160.239 170.137 160.239 170.067C160.239 169.996 160.221 169.927 160.186 169.867C160.152 169.807 160.1 169.756 160.04 169.721C159.98 169.687 159.911 169.668 159.841 169.668H157.244C157.132 169.668 157.023 169.697 156.925 169.754C156.827 169.811 156.746 169.891 156.691 169.989L154.154 174.42C154.105 174.506 154.034 174.577 153.95 174.625C153.866 174.673 153.77 174.699 153.672 174.699C153.574 174.699 153.478 174.673 153.394 174.625C153.308 174.575 153.237 174.505 153.189 174.42L150.652 169.989C150.596 169.891 150.517 169.811 150.419 169.754C150.323 169.697 150.211 169.668 150.099 169.668H147.503C147.432 169.67 147.365 169.688 147.305 169.725C147.245 169.759 147.195 169.811 147.161 169.871C147.126 169.933 147.109 170 147.109 170.07C147.109 170.139 147.128 170.208 147.162 170.268L151.427 177.729C151.533 177.915 151.588 178.126 151.588 178.339C151.588 178.554 151.533 178.764 151.427 178.95L147.162 186.408C147.128 186.468 147.109 186.537 147.109 186.607C147.109 186.678 147.128 186.746 147.162 186.806C147.197 186.867 147.248 186.918 147.308 186.953C147.369 186.987 147.437 187.006 147.508 187.006H150.105C150.216 187.006 150.326 186.977 150.424 186.92C150.522 186.863 150.603 186.782 150.658 186.684L153.187 182.26C153.236 182.176 153.306 182.105 153.39 182.056C153.474 182.006 153.57 181.98 153.668 181.98C153.766 181.98 153.862 182.006 153.947 182.056C154.031 182.104 154.101 182.174 154.149 182.26L156.677 186.684C156.734 186.782 156.813 186.863 156.911 186.92C157.007 186.977 157.119 187.006 157.23 187.006H159.827C159.898 187.006 159.966 186.987 160.026 186.953C160.087 186.918 160.138 186.867 160.172 186.806C160.207 186.746 160.226 186.678 160.226 186.607C160.226 186.537 160.207 186.468 160.172 186.408Z" fill="#B2B4BA"/>
<path fill-rule="evenodd" clip-rule="evenodd" d="M164.864 195.7H104.596C102.943 195.7 101.389 195.055 100.219 193.887L96.812 190.476C95.6441 189.308 95 187.752 95 186.099V165.335C95 162.944 96.9425 161 99.3315 161H159.602C161.256 161 162.808 161.645 163.976 162.813L167.384 166.224C168.552 167.392 169.196 168.948 169.196 170.601V191.365C169.196 193.756 167.253 195.7 164.864 195.7ZM99.3315 162.239C97.626 162.239 96.2383 163.628 96.2383 165.335V186.099C96.2383 187.422 96.7536 188.666 97.6879 189.602L101.095 193.012C102.031 193.948 103.273 194.462 104.596 194.462H164.866C166.571 194.462 167.959 193.074 167.959 191.367V170.603C167.959 169.28 167.444 168.035 166.509 167.1L163.102 163.69C162.168 162.755 160.924 162.239 159.602 162.239H99.3315Z" fill="#B2B4BA"/>
</svg>
