<svg width="40" height="41" viewBox="0 0 40 41" fill="none" xmlns="http://www.w3.org/2000/svg">
<mask id="path-1-inside-1_2077_33830" fill="white">
<path fill-rule="evenodd" clip-rule="evenodd" d="M3 19.6504V19.1798V5.41505C3 3.20591 4.79086 1.41504 7 1.41504L28.1832 1.41504C29.8326 1.41504 31.4092 2.09402 32.5425 3.29238L37.3594 8.38583C38.413 9.49992 39.0001 10.9751 39.0001 12.5085V19.1798V19.6504V33.4151C39.0001 35.6243 37.2093 37.4151 35.0001 37.4151H13.8169C12.1676 37.4151 10.5909 36.7362 9.45761 35.5378L4.64068 30.4443C3.58708 29.3303 3 27.8551 3 26.3217V19.6504Z"/>
</mask>
<path d="M7 1.41504V2.41504V1.41504ZM28.1832 1.41504V0.415039V1.41504ZM32.5425 3.29238L33.2691 2.60527V2.60527L32.5425 3.29238ZM37.3594 8.38583L36.6329 9.07294L37.3594 8.38583ZM9.45761 35.5378L8.73106 36.2249H8.73106L9.45761 35.5378ZM4.64068 30.4443L3.91412 31.1315L3.91413 31.1315L4.64068 30.4443ZM2 19.1798V19.6504H4V19.1798H2ZM2 5.41505V19.1798H4V5.41505H2ZM7 0.415041C4.23857 0.415041 2 2.65362 2 5.41505H4C4 3.75819 5.34314 2.41504 7 2.41504V0.415041ZM28.1832 0.415039L7 0.415041V2.41504L28.1832 2.41504V0.415039ZM33.2691 2.60527C31.9469 1.20718 30.1075 0.415039 28.1832 0.415039V2.41504C29.5577 2.41504 30.8715 2.98086 31.816 3.97949L33.2691 2.60527ZM38.086 7.69872L33.2691 2.60527L31.816 3.97949L36.6329 9.07294L38.086 7.69872ZM40.0001 12.5085C40.0001 10.7195 39.3152 8.99849 38.086 7.69872L36.6329 9.07294C37.5109 10.0013 38.0001 11.2307 38.0001 12.5085H40.0001ZM40.0001 19.1798V12.5085H38.0001V19.1798H40.0001ZM40.0001 19.6504V19.1798H38.0001V19.6504H40.0001ZM40.0001 33.4151V19.6504H38.0001V33.4151H40.0001ZM35.0001 38.4151C37.7615 38.4151 40.0001 36.1766 40.0001 33.4151H38.0001C38.0001 35.072 36.657 36.4151 35.0001 36.4151V38.4151ZM13.8169 38.4151H35.0001V36.4151H13.8169V38.4151ZM8.73106 36.2249C10.0532 37.623 11.8927 38.4151 13.8169 38.4151V36.4151C12.4425 36.4151 11.1286 35.8493 10.1842 34.8507L8.73106 36.2249ZM3.91413 31.1315L8.73106 36.2249L10.1842 34.8507L5.36723 29.7572L3.91413 31.1315ZM2 26.3217C2 28.1106 2.68492 29.8317 3.91412 31.1315L5.36723 29.7572C4.48923 28.8288 4 27.5995 4 26.3217H2ZM2 19.6504V26.3217H4V19.6504H2Z" fill="#A09367" mask="url(#path-1-inside-1_2077_33830)"/>
<path fill-rule="evenodd" clip-rule="evenodd" d="M38 13.0248V19.415V33.415C38 35.0719 36.6569 36.415 35 36.415H13.9289C12.5544 36.415 11.2405 35.8492 10.2961 34.8506L5.36723 29.6388C4.48923 28.7104 4 27.481 4 26.2032V19.415V5.41504C4 3.75819 5.34315 2.41504 7 2.41504L27.6405 2.41504C29.2899 2.41504 30.8665 3.09402 31.9998 4.29238L36.3593 8.90216C37.4129 10.0162 38 11.4914 38 13.0248Z" fill="#F7F8FC"/>
<mask id="path-4-inside-2_2077_33830" fill="white">
<path fill-rule="evenodd" clip-rule="evenodd" d="M6 22.415V16.415V6.41504C6 5.31047 6.89543 4.41504 8 4.41504H27.4923C28.5975 4.41504 29.6533 4.87225 30.4095 5.6782L34.9171 10.4828C35.6128 11.2243 36 12.2029 36 13.2197V16.4128C36 16.4135 36 16.4143 36 16.415V22.415V32.415C36 33.5196 35.1046 34.415 34 34.415H14.5077C13.4025 34.415 12.3467 33.9578 11.5905 33.1519L7.08286 28.3473C6.38719 27.6058 6 26.6272 6 25.6104V22.415Z"/>
</mask>
<path fill-rule="evenodd" clip-rule="evenodd" d="M6 22.415V16.415V6.41504C6 5.31047 6.89543 4.41504 8 4.41504H27.4923C28.5975 4.41504 29.6533 4.87225 30.4095 5.6782L34.9171 10.4828C35.6128 11.2243 36 12.2029 36 13.2197V16.4128C36 16.4135 36 16.4143 36 16.415V22.415V32.415C36 33.5196 35.1046 34.415 34 34.415H14.5077C13.4025 34.415 12.3467 33.9578 11.5905 33.1519L7.08286 28.3473C6.38719 27.6058 6 26.6272 6 25.6104V22.415Z" fill="white"/>
<path d="M30.4095 5.6782L31.1388 4.99399V4.99399L30.4095 5.6782ZM34.9171 10.4828L34.1879 11.167V11.167L34.9171 10.4828ZM11.5905 33.1519L10.8612 33.8361H10.8612L11.5905 33.1519ZM7.08286 28.3473L7.81214 27.663H7.81214L7.08286 28.3473ZM5 16.415V22.415H7V16.415H5ZM5 6.41504V16.415H7V6.41504H5ZM8 3.41504C6.34314 3.41504 5 4.75819 5 6.41504H7C7 5.86275 7.44771 5.41504 8 5.41504V3.41504ZM27.4923 3.41504H8V5.41504H27.4923V3.41504ZM31.1388 4.99399C30.1936 3.98655 28.8737 3.41504 27.4923 3.41504V5.41504C28.3212 5.41504 29.1131 5.75795 29.6802 6.36241L31.1388 4.99399ZM35.6464 9.79861L31.1388 4.99399L29.6802 6.36241L34.1879 11.167L35.6464 9.79861ZM37 13.2197C37 11.9487 36.516 10.7255 35.6464 9.79861L34.1879 11.167C34.7096 11.7232 35 12.4571 35 13.2197H37ZM37 16.4128V13.2197H35V16.4128H37ZM37 16.415C37 16.4139 37 16.4129 37 16.4126C37 16.4122 37 16.4124 37 16.4128H35C35 16.4139 35 16.4149 35 16.4152C35 16.4157 35 16.4154 35 16.415H37ZM37 22.415V16.415H35V22.415H37ZM37 32.415V22.415H35V32.415H37ZM34 35.415C35.6569 35.415 37 34.0719 37 32.415H35C35 32.9673 34.5523 33.415 34 33.415V35.415ZM14.5077 35.415H34V33.415H14.5077V35.415ZM10.8612 33.8361C11.8064 34.8435 13.1263 35.415 14.5077 35.415V33.415C13.6788 33.415 12.8869 33.0721 12.3198 32.4677L10.8612 33.8361ZM6.35357 29.0315L10.8612 33.8361L12.3198 32.4677L7.81214 27.663L6.35357 29.0315ZM5 25.6104C5 26.8813 5.48399 28.1046 6.35358 29.0315L7.81214 27.663C7.29039 27.1069 7 26.373 7 25.6104H5ZM5 22.415V25.6104H7V22.415H5Z" fill="#010101" mask="url(#path-4-inside-2_2077_33830)"/>
<path fill-rule="evenodd" clip-rule="evenodd" d="M26.7851 10.5434C26.7433 10.5027 26.6932 10.4703 26.6378 10.4482C26.5824 10.4262 26.5228 10.4149 26.4627 10.415H23.0757C23.0155 10.415 22.956 10.4263 22.9006 10.4484C22.8452 10.4704 22.7951 10.5027 22.7532 10.5434L21.8266 11.4429C21.7461 11.5219 21.7016 11.6274 21.7025 11.7369V14.829C21.7025 14.9387 21.7478 15.0442 21.8287 15.1231L22.7553 16.0226C22.797 16.0628 22.8468 16.0949 22.9018 16.1169C22.9568 16.139 23.0159 16.1505 23.0757 16.1509H26.4627C26.5228 16.1509 26.5823 16.1395 26.6377 16.1174C26.6931 16.0954 26.7432 16.0631 26.7851 16.0226L27.7117 15.1231C27.7926 15.0442 27.8378 14.9387 27.8378 14.829V11.7369C27.8383 11.6272 27.793 11.5216 27.7117 11.4429L26.7851 10.5434ZM26.2471 14.4066C26.2471 14.4773 26.2173 14.5451 26.1643 14.5952C26.1113 14.6453 26.0394 14.6736 25.9643 14.6739H23.5761C23.501 14.6736 23.4291 14.6453 23.3761 14.5952C23.3231 14.5451 23.2933 14.4773 23.2933 14.4066V12.123C23.2928 12.0876 23.2997 12.0525 23.3137 12.0197C23.3276 11.9869 23.3483 11.9571 23.3746 11.9319C23.4009 11.9066 23.4323 11.8866 23.4669 11.8729C23.5014 11.8591 23.5386 11.852 23.5761 11.8519H25.9643C26.0394 11.8521 26.1113 11.8804 26.1643 11.9305C26.2173 11.9806 26.2471 12.0484 26.2471 12.1191V14.4066ZM20.1616 10.415H19.1557C19.1186 10.415 19.0818 10.4219 19.0475 10.4353C19.0132 10.4487 18.982 10.4683 18.9558 10.493C18.9295 10.5178 18.9087 10.5471 18.8945 10.5794C18.8802 10.6117 18.8729 10.6464 18.8729 10.6813V14.7926C18.8726 14.8396 18.8559 14.8851 18.8254 14.9222C18.7949 14.9594 18.7523 14.9861 18.7042 14.9982C18.6561 15.0104 18.605 15.0074 18.5589 14.9896C18.5128 14.9719 18.4741 14.9404 18.4488 14.8999L15.7768 10.5673C15.7482 10.5211 15.7072 10.4827 15.658 10.456C15.6087 10.4292 15.5529 10.4151 15.4961 10.415H14.4078C14.3329 10.4153 14.2611 10.4434 14.2081 10.4933C14.1551 10.5432 14.1253 10.6108 14.125 10.6813V18.4556C14.1253 18.5262 14.1551 18.5938 14.2081 18.6436C14.2611 18.6935 14.3329 18.7217 14.4078 18.7219H15.4137C15.4887 18.7219 15.5606 18.6939 15.6136 18.6439C15.6667 18.594 15.6965 18.5263 15.6965 18.4556V14.353C15.697 14.3061 15.7139 14.2607 15.7445 14.2237C15.775 14.1868 15.8176 14.1602 15.8657 14.1482C15.9137 14.1361 15.9647 14.1392 16.0107 14.157C16.0568 14.1748 16.0953 14.2063 16.1206 14.2466L18.7814 18.5696C18.8102 18.616 18.8513 18.6544 18.9007 18.6811C18.9502 18.7078 19.0061 18.7219 19.0631 18.7219H20.1616C20.2365 18.7217 20.3083 18.6935 20.3613 18.6436C20.4142 18.5938 20.4441 18.5262 20.4444 18.4556V10.6813C20.4441 10.6108 20.4142 10.5432 20.3613 10.4933C20.3083 10.4434 20.2365 10.4153 20.1616 10.415ZM27.5561 17.2813H21.9853C21.8291 17.2813 21.7025 17.4005 21.7025 17.5476V18.4557C21.7025 18.6027 21.8291 18.7219 21.9853 18.7219H27.5561C27.7122 18.7219 27.8388 18.6027 27.8388 18.4557V17.5476C27.8388 17.4005 27.7122 17.2813 27.5561 17.2813ZM20.5446 20.3951C20.5617 20.366 20.5708 20.333 20.5708 20.2994C20.5708 20.2658 20.5618 20.2328 20.5446 20.2037C20.5274 20.1746 20.5027 20.1504 20.473 20.1335C20.4432 20.1167 20.4095 20.1079 20.3751 20.1078H19.1017C19.0466 20.1077 18.9924 20.122 18.9448 20.1491C18.8971 20.1761 18.8576 20.2151 18.8304 20.262L17.5805 22.3852C17.5565 22.4257 17.522 22.4594 17.4805 22.4828C17.439 22.5062 17.3919 22.5186 17.344 22.5186C17.2961 22.5186 17.249 22.5062 17.2074 22.4828C17.1659 22.4594 17.1314 22.4257 17.1074 22.3852L15.8654 20.262C15.8381 20.2152 15.7986 20.1763 15.751 20.1492C15.7033 20.1221 15.6492 20.1078 15.5941 20.1078H14.3207C14.2863 20.1079 14.2526 20.1167 14.2228 20.1335C14.1931 20.1504 14.1684 20.1746 14.1512 20.2037C14.134 20.2328 14.125 20.2658 14.125 20.2994C14.125 20.333 14.1341 20.366 14.1512 20.3951L16.2445 23.9682C16.2969 24.057 16.3245 24.1578 16.3245 24.2603C16.3245 24.3629 16.2969 24.4636 16.2445 24.5524L14.1532 28.1274C14.136 28.1565 14.127 28.1895 14.127 28.2231C14.127 28.2567 14.136 28.2898 14.1532 28.3189C14.1703 28.348 14.195 28.3722 14.2248 28.389C14.2545 28.4058 14.2883 28.4147 14.3227 28.4147H15.596C15.6513 28.4149 15.7056 28.4007 15.7535 28.3736C15.8013 28.3465 15.841 28.3075 15.8683 28.2605L17.1094 26.1412C17.1332 26.1004 17.1676 26.0665 17.2092 26.0429C17.2507 26.0193 17.2979 26.0068 17.3459 26.0068C17.394 26.0068 17.4412 26.0193 17.4827 26.0429C17.5243 26.0665 17.5587 26.1004 17.5825 26.1412L18.8226 28.2605C18.8498 28.3074 18.8892 28.3464 18.9369 28.3735C18.9846 28.4006 19.0388 28.4148 19.0939 28.4147H20.3673C20.4016 28.4147 20.4354 28.4058 20.4651 28.389C20.4949 28.3722 20.5196 28.348 20.5368 28.3189C20.5539 28.2898 20.563 28.2567 20.563 28.2231C20.563 28.1895 20.5539 28.1565 20.5367 28.1274L18.4503 24.5543C18.3981 24.4654 18.3706 24.3647 18.3706 24.2622C18.3706 24.1597 18.3981 24.059 18.4503 23.9701L20.5446 20.3951ZM25.643 24.2622C25.643 24.3647 25.6703 24.4654 25.7223 24.5543L27.8087 28.1274C27.8259 28.1565 27.8349 28.1895 27.8349 28.2231C27.8349 28.2567 27.8259 28.2898 27.8087 28.3189C27.7916 28.348 27.7669 28.3722 27.7371 28.389C27.7073 28.4058 27.6736 28.4147 27.6392 28.4147H26.3658C26.3107 28.4147 26.2566 28.4004 26.209 28.3733C26.1613 28.3463 26.1218 28.3073 26.0945 28.2605L24.8545 26.1412C24.8307 26.1004 24.7962 26.0665 24.7547 26.0429C24.7131 26.0193 24.6659 26.0068 24.6179 26.0068C24.5699 26.0068 24.5227 26.0193 24.4811 26.0429C24.4396 26.0665 24.4051 26.1004 24.3813 26.1412L23.1403 28.2605C23.113 28.3073 23.0735 28.3463 23.0259 28.3733C22.9782 28.4004 22.9241 28.4147 22.869 28.4147H21.5956C21.5612 28.4147 21.5275 28.4058 21.4977 28.389C21.468 28.3722 21.4433 28.348 21.4261 28.3189C21.4089 28.2898 21.3999 28.2567 21.3999 28.2231C21.3999 28.1895 21.409 28.1565 21.4261 28.1274L23.5174 24.5543C23.5694 24.4654 23.5967 24.3647 23.5967 24.2622C23.5967 24.1598 23.5694 24.0591 23.5174 23.9701L21.4261 20.3951C21.4091 20.3662 21.4 20.3335 21.3999 20.3001C21.3997 20.2667 21.4085 20.2339 21.4253 20.2049C21.4422 20.1759 21.4665 20.1516 21.4958 20.1346C21.5252 20.1176 21.5585 20.1083 21.5927 20.1078H22.866C22.9211 20.1078 22.9753 20.1221 23.0229 20.1492C23.0706 20.1763 23.1101 20.2152 23.1374 20.262L24.3813 22.3852C24.4053 22.4257 24.4398 22.4594 24.4814 22.4828C24.5229 22.5062 24.57 22.5186 24.6179 22.5186C24.6658 22.5186 24.7129 22.5062 24.7544 22.4828C24.796 22.4594 24.8305 22.4257 24.8545 22.3852L26.0984 20.262C26.1257 20.2152 26.1652 20.1763 26.2129 20.1492C26.2605 20.1221 26.3146 20.1078 26.3698 20.1078H27.6431C27.6775 20.1078 27.7113 20.1167 27.741 20.1335C27.7708 20.1504 27.7955 20.1746 27.8126 20.2037C27.8298 20.2328 27.8388 20.2658 27.8388 20.2994C27.8388 20.333 27.8298 20.366 27.8126 20.3951L25.7223 23.9701C25.6703 24.0591 25.643 24.1598 25.643 24.2622Z" fill="#010101"/>
</svg>
