<svg width="65" height="30" viewBox="0 0 65 30" fill="none" xmlns="http://www.w3.org/2000/svg">
  <path fill-rule="evenodd" clip-rule="evenodd"
    d="M60.401 30H8.296a5.319 5.319 0 0 1-3.783-1.568l-2.946-2.948A5.322 5.322 0 0 1 0 21.699V3.748A3.75 3.75 0 0 1 3.745 0h52.107a5.31 5.31 0 0 1 3.782 1.568l2.946 2.948a5.321 5.321 0 0 1 1.566 3.785v17.951A3.75 3.75 0 0 1 60.401 30zM3.745 1.071A2.678 2.678 0 0 0 1.07 3.748v17.951c0 1.144.445 2.22 1.253 3.029l2.946 2.948a4.247 4.247 0 0 0 3.026 1.254h52.107c1.474 0 2.674-1.2 2.674-2.676V8.302c0-1.144-.445-2.22-1.253-3.028l-2.946-2.948a4.25 4.25 0 0 0-3.026-1.255H3.745zm19.749 14.107h4.055a.48.48 0 0 0 .481-.482V10.57a.48.48 0 0 0-.481-.481h-4.055a.472.472 0 0 0-.341.144.49.49 0 0 0-.139.345v4.119a.48.48 0 0 0 .48.481zM58.12 3.082l2.946 2.949c.6.601.94 1.419.94 2.272v17.95c0 .887-.72 1.606-1.606 1.606H8.295c-.851 0-1.668-.339-2.27-.94l-2.945-2.95a3.214 3.214 0 0 1-.94-2.27V3.748c0-.887.718-1.606 1.605-1.606h52.107c.85 0 1.667.338 2.269.94zM20.524 9.35a.759.759 0 0 0-.211.53v5.58c0 .198.076.389.214.531l1.572 1.623a.777.777 0 0 0 .545.232h5.748a.768.768 0 0 0 .548-.232l1.572-1.623a.768.768 0 0 0 .214-.53V9.882a.756.756 0 0 0-.213-.53L28.94 7.729a.744.744 0 0 0-.546-.232h-5.751a.756.756 0 0 0-.547.23L20.524 9.35zm-2.489 12.991a.474.474 0 0 0 .141-.339h-.001V7.974a.48.48 0 0 0-.48-.48h-1.707a.485.485 0 0 0-.481.482v7.418a.38.38 0 0 1-.08.233.39.39 0 0 1-.454.122.39.39 0 0 1-.187-.162L10.25 7.771a.557.557 0 0 0-.477-.275H7.926a.479.479 0 0 0-.48.48v14.028a.48.48 0 0 0 .48.48h1.708a.48.48 0 0 0 .481-.482v-7.401a.39.39 0 0 1 .288-.37.39.39 0 0 1 .434.178l4.517 7.798a.55.55 0 0 0 .478.275h1.865c.126 0 .248-.05.338-.14zm12.216.141a.48.48 0 0 0 .48-.48v-1.637a.48.48 0 0 0-.48-.48h-9.457a.48.48 0 0 0-.48.48v1.637c0 .265.214.48.48.48h9.457zm13.273-.515-3.678-6.448a.994.994 0 0 1-.135-.528c0-.185.05-.367.141-.527l3.692-6.451a.348.348 0 0 0 0-.345.343.343 0 0 0-.299-.172H41a.55.55 0 0 0-.478.278l-2.203 3.83a.481.481 0 0 1-.835 0l-2.19-3.83a.553.553 0 0 0-.478-.278H32.57a.348.348 0 0 0-.299.172.348.348 0 0 0 0 .345l3.69 6.448a1.059 1.059 0 0 1 0 1.055l-3.687 6.45a.348.348 0 0 0 0 .345.343.343 0 0 0 .299.173h2.245a.552.552 0 0 0 .48-.278l2.187-3.825a.487.487 0 0 1 .415-.242.472.472 0 0 1 .416.242l2.186 3.825a.554.554 0 0 0 .478.278h2.245a.348.348 0 0 0 .298-.173.348.348 0 0 0 0-.344zm12.82 0-3.677-6.448a1.01 1.01 0 0 1-.135-.53c0-.185.047-.366.14-.527l3.685-6.45a.348.348 0 0 0 0-.345.344.344 0 0 0-.299-.173h-2.245a.55.55 0 0 0-.478.278l-2.193 3.831a.48.48 0 0 1-.658.177.481.481 0 0 1-.177-.177l-2.193-3.83a.553.553 0 0 0-.478-.279h-2.245a.345.345 0 0 0-.34.348c0 .06.016.119.046.17l3.687 6.452a1.062 1.062 0 0 1 0 1.055l-3.687 6.448a.348.348 0 0 0 0 .345.343.343 0 0 0 .298.172h2.245a.55.55 0 0 0 .479-.278l2.187-3.825a.487.487 0 0 1 .416-.242.472.472 0 0 1 .415.242l2.186 3.825a.554.554 0 0 0 .478.278h2.245a.348.348 0 0 0 .299-.173.348.348 0 0 0 0-.344z"
    fill="#010101" />
</svg>